<svg xmlns="http://www.w3.org/2000/svg" xmlns:xlink="http://www.w3.org/1999/xlink" viewBox="0 0 1274 1706"><defs><style>.cls-1{isolation:isolate;}.cls-2{fill:#3b82ff;}.cls-3{fill:#b3d9ff;}.cls-4{fill:#71b2ff;}.cls-10,.cls-11,.cls-14,.cls-15,.cls-5{opacity:0.5;}.cls-6{fill:url(#linear-gradient);}.cls-7{fill:url(#linear-gradient-2);}.cls-8{fill:url(#linear-gradient-3);}.cls-9{fill:url(#linear-gradient-4);}.cls-10,.cls-11,.cls-15,.cls-16,.cls-17{fill:none;stroke:#3888fc;stroke-miterlimit:10;}.cls-10,.cls-15,.cls-16,.cls-17{stroke-linecap:round;}.cls-10{stroke-width:5px;stroke-dasharray:5 20;}.cls-11{stroke-width:2px;}.cls-11,.cls-15,.cls-16,.cls-17{mix-blend-mode:multiply;}.cls-12,.cls-13,.cls-14{fill:#3888fc;}.cls-13{opacity:0.7;}.cls-15,.cls-16,.cls-17{stroke-width:9px;}.cls-16{opacity:0.25;}.cls-17{opacity:0.2;}.cls-18{fill:#c9b6ff;}.cls-19{fill:#fff;}.cls-20{fill:#453756;}.cls-21{fill:#9882e8;}.cls-22{fill:#595fc6;}.cls-23{fill:#f7c5b0;}.cls-24{fill:#5a5886;}.cls-25{fill:#c12f02;}.cls-26{fill:#9080b9;}.cls-27{fill:#efa389;}.cls-28{fill:#ed5a4f;}.cls-29{fill:#f56856;}.cls-30{fill:#e54b48;}.cls-31{fill:#fb643f;}.cls-32{fill:#4a0400;}.cls-33{fill:#f78676;}.cls-34{fill:#db902e;}</style><linearGradient id="linear-gradient" x1="-4359.23" y1="581.24" x2="-4207.92" y2="581.24" gradientTransform="matrix(-1, 0, 0, 1, -3360.91, 0)" gradientUnits="userSpaceOnUse"><stop offset="0" stop-color="aqua" stop-opacity="0.5"/><stop offset="0.15" stop-color="#04fffe" stop-opacity="0.51"/><stop offset="0.3" stop-color="#11fffb" stop-opacity="0.55"/><stop offset="0.46" stop-color="#26fff5" stop-opacity="0.61"/><stop offset="0.62" stop-color="#4fe" stop-opacity="0.7"/><stop offset="0.78" stop-color="#6affe4" stop-opacity="0.81"/><stop offset="0.94" stop-color="#98ffd8" stop-opacity="0.94"/><stop offset="1" stop-color="#abffd3"/></linearGradient><linearGradient id="linear-gradient-2" x1="-4358.99" y1="554.35" x2="-4207.68" y2="554.35" xlink:href="#linear-gradient"/><linearGradient id="linear-gradient-3" x1="719.16" y1="1034.59" x2="1205.72" y2="1034.59" gradientTransform="matrix(1, 0, 0, 1, 0, 0)" xlink:href="#linear-gradient"/><linearGradient id="linear-gradient-4" x1="719.94" y1="948.11" x2="1206.5" y2="948.11" gradientTransform="matrix(1, 0, 0, 1, 0, 0)" xlink:href="#linear-gradient"/></defs><title>MongoDB_Isometric_Zoom3</title><g class="cls-1"><g id="Extended_blocks" data-name="Extended blocks"><polygon class="cls-2" points="1072.81 898.17 1072.81 1103.37 542.73 1397.17 542.73 1200.97 542.91 1200.87 1072.81 898.17"/><polygon class="cls-3" points="1072.81 898.17 542.91 1200.87 542.73 1200.52 189.85 993 189.85 988.33 718.38 694.53 1072.81 898.17"/><polygon class="cls-4" points="542.73 1200.52 542.91 1200.87 542.73 1200.97 542.73 1397.17 541.72 1398.92 189.85 1196.64 189.85 993 542.73 1200.52"/><polygon class="cls-2" points="1072.81 697.64 1072.81 902.84 542.73 1202.08 542.73 1201.3 542.73 1005.43 542.73 1004.65 1072.81 697.64"/><polygon class="cls-3" points="1072.81 697.64 542.73 1004.65 542.73 1005.43 189.85 797.91 718.38 494 1072.81 697.64"/><polygon class="cls-4" points="542.73 1005.43 542.73 1201.3 189.85 996.11 189.85 797.91 542.73 1005.43"/></g><g id="Code_panels" data-name="Code panels"><g class="cls-5"><path class="cls-6" d="M998.32,634.29a8.7,8.7,0,0,1-12.91,7.61l-133.9-74a8.69,8.69,0,0,1-4.5-7.62V519.48l151.31,83.63Z"/><path class="cls-7" d="M846.77,512.36v4.71L998.08,600.7v-7a8.7,8.7,0,0,0-4.49-7.61L853.23,508.55A4.35,4.35,0,0,0,846.77,512.36Zm143.74,76.37c1-.27,2.12.63,2.5,2s-.12,2.74-1.12,3-2.12-.64-2.5-2S989.51,589,990.51,588.73Zm-5.76-3.06c1-.27,2.14.66,2.53,2.07s-.11,2.79-1.12,3.07-2.14-.65-2.53-2.07S983.75,586,984.75,585.67ZM979,582.52c1-.28,2.15.67,2.55,2.11s-.11,2.83-1.12,3.11-2.16-.67-2.55-2.11S978,582.8,979,582.52Z"/></g><path class="cls-8" d="M719.16,1205.16a28,28,0,0,0,41.52,24.49l430.6-238a28,28,0,0,0,14.44-24.49V836L719.16,1104.92Z"/><path class="cls-9" d="M1185.74,800.83,734.38,1050.3a28,28,0,0,0-14.44,24.49v22.36L1206.5,828.22V813.07A14,14,0,0,0,1185.74,800.83ZM747.88,1068.38c-1.23,4.48-4.83,7.4-8,6.52s-4.83-5.23-3.61-9.71,4.83-7.4,8-6.52S749.1,1063.9,747.88,1068.38Zm18.51-9.68c-1.24,4.56-4.88,7.54-8.12,6.65s-4.85-5.29-3.6-9.85,4.88-7.54,8.12-6.66S767.64,1054.14,766.39,1058.7Zm18.52-10c-1.27,4.64-4.94,7.68-8.2,6.79s-4.87-5.37-3.6-10,4.94-7.68,8.2-6.79S786.18,1044.07,784.91,1048.7Z"/><line class="cls-10" x1="943.79" y1="1003.1" x2="943.79" y2="1094.82"/><polyline class="cls-11" points="748.7 1109.59 748.7 1209.07 918.14 1120.47"/><polygon class="cls-12" points="774.97 1194.82 748.55 1208.76 748.7 1140.67 775.12 1126.68 774.97 1194.82"/><polygon class="cls-13" points="802.95 1179.27 779.64 1191.66 779.79 1145.34 803.11 1132.9 802.95 1179.27"/><polygon class="cls-13" points="904 1126.42 885.34 1135.7 885.49 1108.03 904.15 1098.7 904 1126.42"/><polygon class="cls-12" points="852.7 1154.4 834.04 1163.68 834.2 1111.14 852.85 1101.81 852.7 1154.4"/><polygon class="cls-14" points="879.13 1140.41 860.47 1149.69 860.62 1075.38 879.28 1066.06 879.13 1140.41"/><line class="cls-15" x1="967.88" y1="997.66" x2="1126.44" y2="910.61"/><line class="cls-16" x1="1081.36" y1="975.9" x2="1158.65" y2="936.02"/><line class="cls-15" x1="1019.18" y1="1010.1" x2="1063.82" y2="987.32"/><line class="cls-15" x1="970.99" y1="1072.28" x2="991.2" y2="1061.53"/><line class="cls-17" x1="1008.3" y1="1052.07" x2="1107.79" y2="999.15"/><line class="cls-15" x1="1173" y1="891" x2="1184.9" y2="884"/></g><g id="People"><polygon class="cls-18" points="775.23 730.19 794.12 773.12 822.22 766.14 807.28 735.91 775.23 730.19"/><path class="cls-19" d="M793.45,908.31c-5.26,2-12.58,6.74-7.33,9.7s39.66-7,40.37-14.48a47.72,47.72,0,0,0-.45-12.29,2.22,2.22,0,0,1-.47.79c-2.49,1.88-12.79-3.56-12.79-3.56a4.23,4.23,0,0,0,.52-1.56C809,891.15,798.25,906.52,793.45,908.31Z"/><path class="cls-18" d="M794.12,773.12l30.24,9.31a29.91,29.91,0,0,1,3.79-4.28l-5.93-12Z"/><path class="cls-20" d="M813.3,886.91a4.23,4.23,0,0,1-.52,1.56s10.3,5.44,12.79,3.56a2.22,2.22,0,0,0,.47-.79c-.11-.61-.19-1-.19-1s-8.31-6.36-11.52-4.27a9,9,0,0,0-1,.89Z"/><path class="cls-20" d="M813.3,886.91a9,9,0,0,1,1-.89c3.21-2.09,11.52,4.27,11.52,4.27s.08.34.19,1c1.32-3.19,3.68-15,6.2-27.91-3.94-23.18-7.47-45.78-7.07-50.51.54-6.52,22.5-24.06,46.87-34.44a4.6,4.6,0,0,1-1.23-.68c-.59-.51-1.19-2.22-1.75-4.79l-37.74,11.66-7-2.14a15.76,15.76,0,0,0-2.31,4.47C818.61,798,815.92,874.61,813.3,886.91Z"/><path class="cls-21" d="M822.22,766.14l5.93,12c.83-.78,1.71-1.56,2.62-2.3-1.57-2-2.54-5.6-1.15-11.55Z"/><path class="cls-18" d="M824.36,782.43l7,2.14-3.17-6.42A29.91,29.91,0,0,0,824.36,782.43Z"/><path class="cls-22" d="M832.24,863.33c4.69,27.57,10,55.93,10,55.93s2.62,1,6,1.84c2.2-4.33,15.47-5,15.47-5,.87-16.25-2.63-85.15-.72-89.1,2.06-4.26,54.22-8.29,61-21.46,0,0,11.7-14.28,5.92-24.85-1.49.7-3.89,1.09-7.59,1-17-.53-43.41-.56-50.29-3.32-24.37,10.38-46.33,27.92-46.87,34.44C824.77,817.55,828.3,840.15,832.24,863.33Z"/><path class="cls-21" d="M828.15,778.15l3.17,6.42,37.74-11.66L864,771.8c-3-.19-5.66-.38-7.77-.54a7.39,7.39,0,0,1-4.27-1.75l-.47-.44L844,767.44h0a4.32,4.32,0,0,0-1.06.37h0l-.34.19-.06,0c-3.63,2.3-6,9.65-8.34,9.65a4.55,4.55,0,0,1-3.41-1.85C829.86,776.59,829,777.37,828.15,778.15Z"/><path class="cls-23" d="M829.62,764.3c-1.39,6-.42,9.59,1.15,11.55a81.67,81.67,0,0,1,11.75-7.8l.06,0,.34-.19h0l.8-.43-14.1-3.08Z"/><path class="cls-23" d="M829.62,764.3h0l14.1,3.08c3.07-1.67,5.31-2.68,5.63-2.83a7.42,7.42,0,0,1,1-4.48,34.91,34.91,0,0,0-4.79-2.1h0a2.57,2.57,0,0,1-.86-.29h0c-5.19-1.67-12.37-2.49-14.49,4.57C830,763,829.77,763.65,829.62,764.3Z"/><path class="cls-23" d="M830.77,775.85a4.55,4.55,0,0,0,3.41,1.85c2.35,0,4.71-7.35,8.34-9.65A81.67,81.67,0,0,0,830.77,775.85Z"/><path class="cls-19" d="M839.59,957.18c-4.53,5.78-9.52,15.69-1.81,14.34s39.28-36.63,35.2-43.93a42.21,42.21,0,0,0-9.28-11.45,17.68,17.68,0,0,1-.3,2.85c-1.12,4.75-9.31,3.6-15.17,2.11h0C846,925.44,844.13,951.38,839.59,957.18Z"/><path class="cls-21" d="M842.92,767.82l-.34.19Z"/><path class="cls-23" d="M843.73,767.38l-.8.43a4.32,4.32,0,0,1,1.06-.37Z"/><path class="cls-23" d="M843.73,767.38l.26.06h0a3.39,3.39,0,0,1,1.06-.05c2.38.27,4.28.54,5.63.75a7.28,7.28,0,0,1-1.16-2.58,6.87,6.87,0,0,1-.17-1C849,764.7,846.8,765.71,843.73,767.38Z"/><path class="cls-24" d="M864.71,721.77c-5.11,15.7-13.2,37.07-19.16,36.2a34.91,34.91,0,0,1,4.79,2.1,7.37,7.37,0,0,1,4.6-3.46,93.31,93.31,0,0,1,11.73-2.09,262.19,262.19,0,0,1-.77-32.73Z"/><path class="cls-24" d="M849.36,764.55a6.87,6.87,0,0,0,.17,1,7.28,7.28,0,0,0,1.16,2.58c1.56.23,2.38.4,2.38.4l-2.72-8.47h0A7.42,7.42,0,0,0,849.36,764.55Z"/><path class="cls-24" d="M850.34,760.07h0l2.72,8.47s-.82-.17-2.38-.4a7,7,0,0,0,.78.93L864,771.8l4.91.28a160.86,160.86,0,0,1-2.22-17.56,93.31,93.31,0,0,0-11.73,2.09A7.37,7.37,0,0,0,850.34,760.07Z"/><path class="cls-24" d="M864,771.8l-12.51-2.73.47.44a7.39,7.39,0,0,0,4.27,1.75C858.32,771.42,861,771.61,864,771.8Z"/><path class="cls-22" d="M863.7,916.14s-13.27.63-15.47,5c5.86,1.49,14,2.64,15.17-2.11A17.68,17.68,0,0,0,863.7,916.14Z"/><path class="cls-23" d="M858.72,649.53a26.87,26.87,0,0,0-3.93,14.27c0,10.28,5.33,19,12.67,21.87.51-6.4-8.45-27.36-4-38.1A18.2,18.2,0,0,0,858.72,649.53Z"/><path class="cls-25" d="M872.82,640.9c-5.71,0-10.8,3.37-14.1,8.63a18.2,18.2,0,0,1,4.76-2c1.44-3.48,4.29-5.89,9.34-6.38a16.08,16.08,0,0,1,2.49-.07A14.68,14.68,0,0,0,872.82,640.9Z"/><path class="cls-25" d="M867.46,685.67c-.65,8.46-7.09,11.19-6.38,17.62,1.87,16.89-8.2,18.06,3.63,18.48.56-1.73,1.08-3.39,1.56-4.94.46-4.42,1.19-7.83,2.25-9.53l1.07-1.71c5-8,7.42-12.07,8.85-12.33a14.13,14.13,0,0,0,0-4.3,14.62,14.62,0,0,0-.81-3.11,14.36,14.36,0,0,1-4.84.84A14.68,14.68,0,0,1,867.46,685.67Z"/><path class="cls-23" d="M863.48,647.57c-4.47,10.74,4.49,31.7,4,38.1a14.68,14.68,0,0,0,5.36,1,14.36,14.36,0,0,0,4.84-.84,14.92,14.92,0,0,0-1.7-3.17l10.36-6.84-1.2-10.33,2.86,1.15a2.9,2.9,0,0,0,2.79-.68c.05-.72.08-1.45.08-2.18a29.21,29.21,0,0,0-.7-6.35h0c-5.86-4.06-7.88,3.48-7.88,3.48S876.19,644.5,863.48,647.57Z"/><path class="cls-24" d="M864.71,721.77l1.19,0c.09-1.76.22-3.42.37-5C865.79,718.38,865.27,720,864.71,721.77Z"/><path class="cls-26" d="M865.9,721.79a262.19,262.19,0,0,0,.77,32.73,163.4,163.4,0,0,1,26.57-.7,7.45,7.45,0,0,0,7.27-10.26c-2.84-6.91-6.42-15.7-9.09-22.51C881.36,721.51,871.29,721.88,865.9,721.79Z"/><path class="cls-25" d="M863.48,647.57c12.71-3.07,18.78,13.36,18.78,13.36s2-7.54,7.88-3.48h0c-1.95-8.57-7.73-15.08-14.84-16.33a16.08,16.08,0,0,0-2.49.07C867.77,641.68,864.92,644.09,863.48,647.57Z"/><path class="cls-26" d="M866.27,716.83c-.15,1.54-.28,3.2-.37,5,5.39.09,15.46-.28,25.52-.74v0a50.69,50.69,0,0,1-3.26-13.56c-3.66-5.72-6.61-10.23-8.28-12.53a8,8,0,0,1-1.63-.81,6.48,6.48,0,0,0,.19-.87c-1.43.26-3.85,4.31-8.85,12.33C869.59,705.59,868.31,710.27,866.27,716.83Z"/><path class="cls-26" d="M868.52,707.3c-1.06,1.7-1.79,5.11-2.25,9.53,2-6.56,3.32-11.24,3.32-11.24Z"/><path class="cls-24" d="M866.67,754.52a160.86,160.86,0,0,0,2.22,17.56c5.72.32,12.34.6,19.14.74,9.14-2.4,18-3.25,25.7-1.62,1.2.25,2.32.53,3.38.84a72.3,72.3,0,0,0,10.08-1.61h0S910.44,743,896.57,720.8l-5.15.25c2.67,6.81,6.25,15.6,9.09,22.51a7.45,7.45,0,0,1-7.27,10.26A163.4,163.4,0,0,0,866.67,754.52Z"/><path class="cls-26" d="M868.89,772.08c.06.29.11.56.17.83.56,2.57,1.16,4.28,1.75,4.79a4.6,4.6,0,0,0,1.23.68,116.34,116.34,0,0,1,16-5.56C881.23,772.68,874.61,772.4,868.89,772.08Z"/><path class="cls-23" d="M886.32,675.84,876,682.68a14.92,14.92,0,0,1,1.7,3.17,18.23,18.23,0,0,0,9-7.34Z"/><path class="cls-27" d="M877.66,685.85a14.62,14.62,0,0,1,.81,3.11c3.74,2.4,7.46-5.8,9.35-11l-1.19.51A18.23,18.23,0,0,1,877.66,685.85Z"/><path class="cls-23" d="M878.44,693.26a6.48,6.48,0,0,1-.19.87,8,8,0,0,0,1.63.81C879.08,693.83,878.58,693.24,878.44,693.26Z"/><path class="cls-23" d="M878.44,693.26c.14,0,.64.57,1.44,1.68,3.29,1.2,7,.18,10.27-1.43a10.4,10.4,0,0,1,8.14-5.67c-5.94-1.86-8.12-7.07-8.92-10.51l-1.55.67c-1.89,5.16-5.61,13.36-9.35,11A14.13,14.13,0,0,1,878.44,693.26Z"/><path class="cls-26" d="M890.15,693.51c-3.24,1.61-7,2.63-10.27,1.43,1.67,2.3,4.62,6.81,8.28,12.53C887.66,702.19,888.18,697.16,890.15,693.51Z"/><path class="cls-25" d="M885.12,665.51l1.2,10.33,2.59-1.71h0a27.73,27.73,0,0,0,1.86-8.16,2.9,2.9,0,0,1-2.79.68Z"/><path class="cls-25" d="M889,674.71a18,18,0,0,0,.42,2.62c.8,3.44,3,8.65,8.92,10.51,11-1.5,16.11,13.88,16.29,14.25,1.2,2.49,3.67,9.15,6.53,17.36,0,0,4-24.14-3.93-31.61-14.42-13.55-23-45.84-41.87-46.72,7.11,1.25,12.89,7.76,14.84,16.33,4.12,2.87,2.77,6.84.62,8.53a27.73,27.73,0,0,1-1.86,8.16C888.91,674.21,888.92,674.4,889,674.71Z"/><path class="cls-25" d="M886.32,675.84l.31,2.67a23.77,23.77,0,0,0,2.28-4.37h0Z"/><path class="cls-27" d="M886.63,678.51l1.19-.51c.53-1.43.91-2.62,1.13-3.29,0-.31,0-.5,0-.57A23.77,23.77,0,0,1,886.63,678.51Z"/><path class="cls-22" d="M888,772.82a116.34,116.34,0,0,0-16,5.56c6.88,2.76,33.28,2.79,50.29,3.32,3.7.12,6.1-.27,7.59-1-1.94-3.54-5.84-6.67-12.81-8.69A256.18,256.18,0,0,1,888,772.82Z"/><path class="cls-23" d="M887.82,678l1.55-.67a18,18,0,0,1-.42-2.62C888.73,675.38,888.35,676.57,887.82,678Z"/><path class="cls-24" d="M890.15,693.51c-2,3.65-2.49,8.68-2,14,2.53,4,5.41,8.53,8.41,13.33,12.94-.64,24.54-1.35,24.54-1.35-2.86-8.21-5.33-14.87-6.53-17.36-.18-.37-5.27-15.75-16.29-14.25A37.5,37.5,0,0,1,890.15,693.51Z"/><path class="cls-23" d="M890.15,657.45a29.21,29.21,0,0,1,.7,6.35c0,.73,0,1.46-.08,2.18C892.92,664.29,894.27,660.32,890.15,657.45Z"/><path class="cls-24" d="M888.16,707.47A50.69,50.69,0,0,0,891.42,721v0l5.15-.25C893.57,716,890.69,711.44,888.16,707.47Z"/><path class="cls-24" d="M888,772.82a256.18,256.18,0,0,0,29.08-.78c-1.06-.31-2.18-.59-3.38-.84C906.05,769.57,897.17,770.42,888,772.82Z"/><path class="cls-24" d="M898.29,687.84a10.4,10.4,0,0,0-8.14,5.67A37.5,37.5,0,0,0,898.29,687.84Z"/><path class="cls-24" d="M921.11,719.45s-11.6.71-24.54,1.35c13.87,22.16,30.62,49.62,30.62,49.62h0c5.9-1.47,9.28-3.71,8.29-7C932.64,753.76,926.23,734.12,921.11,719.45Z"/><path class="cls-26" d="M927.19,770.43A72.3,72.3,0,0,1,917.11,772c7,2,10.87,5.15,12.81,8.69,5.77-2.73-2.53-10.13-2.72-10.3Z"/><polygon class="cls-18" points="831.09 797.03 812.2 839.96 784.1 832.99 799.03 802.76 831.09 797.03"/><path class="cls-20" d="M812.87,975.16c5.25,2,12.57,6.74,7.32,9.7s-39.66-7-40.36-14.49a47.17,47.17,0,0,1,.45-12.28,2,2,0,0,0,.47.79c2.49,1.87,12.78-3.56,12.78-3.56a4.39,4.39,0,0,1-.52-1.56C797.28,958,808.07,973.36,812.87,975.16Z"/><path class="cls-18" d="M812.2,840,782,849.27a30.93,30.93,0,0,0-3.78-4.28l5.93-12Z"/><path class="cls-28" d="M793,953.76a4.39,4.39,0,0,0,.52,1.56s-10.29,5.43-12.78,3.56a2,2,0,0,1-.47-.79c.11-.62.19-1,.19-1s8.3-6.36,11.51-4.26a6.75,6.75,0,0,1,1,.88Z"/><path class="cls-21" d="M784.1,833l-5.93,12c-.83-.78-1.72-1.55-2.63-2.3,1.58-2,2.55-5.6,1.15-11.54Z"/><path class="cls-18" d="M782,849.27l-7,2.14,3.18-6.42A30.93,30.93,0,0,1,782,849.27Z"/><path class="cls-29" d="M774.07,930.17c-4.69,27.57-10,55.94-10,55.94s-2.62,1-6,1.83c-2.19-4.33-15.47-5-15.47-5-.86-16.25,2.64-85.16.73-89.1-2.06-4.27-54.22-8.3-61-21.47,0,0-11.69-14.28-5.91-24.85,1.48.7,3.88,1.09,7.59,1,17-.53,43.41-.57,50.29-3.33,24.36,10.39,46.32,27.93,46.87,34.44C781.54,884.39,778,907,774.07,930.17Z"/><path class="cls-30" d="M780.28,958.09c-1.32-3.19-3.68-15-6.21-27.92,3.95-23.17,7.47-45.78,7.08-50.51-.55-6.51-22.51-24-46.87-34.44a4.41,4.41,0,0,0,1.22-.68c.6-.51,1.19-2.22,1.75-4.79L775,851.41l7-2.14a15.67,15.67,0,0,1,2.32,4.47c3.44,11.06,6.12,87.71,8.74,100a6.75,6.75,0,0,0-1-.88c-3.21-2.1-11.51,4.26-11.51,4.26S780.39,957.47,780.28,958.09Z"/><path class="cls-21" d="M778.17,845,775,851.41l-37.74-11.66,5.08-1.11c3-.19,5.67-.38,7.77-.53a7.46,7.46,0,0,0,4.28-1.76l.46-.43,7.48-1.64h0a3.74,3.74,0,0,1,1.06.38h0l.35.19.06,0c3.63,2.3,6,9.65,8.33,9.65a4.5,4.5,0,0,0,3.41-1.85C776.45,843.44,777.34,844.21,778.17,845Z"/><path class="cls-23" d="M776.69,831.15c1.4,5.94.43,9.58-1.15,11.54a82.16,82.16,0,0,0-11.74-7.8l-.06,0-.35-.19h0l-.79-.44,14.1-3.07Z"/><path class="cls-23" d="M775.54,842.69a4.5,4.5,0,0,1-3.41,1.85c-2.35,0-4.7-7.35-8.33-9.65A82.16,82.16,0,0,1,775.54,842.69Z"/><path class="cls-20" d="M766.72,1024c4.54,5.79,9.52,15.69,1.81,14.35s-39.28-36.64-35.2-43.94A42.25,42.25,0,0,1,742.61,983a19.1,19.1,0,0,0,.3,2.85c1.12,4.74,9.31,3.59,15.17,2.1h0C760.27,992.29,762.18,1018.23,766.72,1024Z"/><path class="cls-21" d="M763.39,834.66l.35.19Z"/><path class="cls-23" d="M762.59,834.22l.79.44a3.74,3.74,0,0,0-1.06-.38Z"/><path class="cls-23" d="M761.26,834.24c-2.39.26-4.28.53-5.63.74a7.6,7.6,0,0,0,1.16-2.57,7.2,7.2,0,0,0,.16-1c.32.15,2.56,1.17,5.64,2.83l-.27.06h0A3.74,3.74,0,0,0,761.26,834.24Z"/><path class="cls-23" d="M757,831.39a7.44,7.44,0,0,0-1-4.48,34.63,34.63,0,0,1,4.8-2.09h0a2.65,2.65,0,0,0,.86-.29h0c5.19-1.66,12.37-2.49,14.49,4.58.22.71.4,1.4.55,2.06h0l-14.1,3.07C759.51,832.56,757.27,831.54,757,831.39Z"/><path class="cls-31" d="M757,831.39a7.2,7.2,0,0,1-.16,1,7.6,7.6,0,0,1-1.16,2.57c-1.56.24-2.39.4-2.39.4l2.73-8.47h0A7.44,7.44,0,0,1,757,831.39Z"/><path class="cls-29" d="M742.61,983s13.28.62,15.47,5c-5.86,1.49-14.05,2.64-15.17-2.1A19.1,19.1,0,0,1,742.61,983Z"/><path class="cls-23" d="M747.6,716.37a26.89,26.89,0,0,1,3.93,14.27c0,10.28-5.34,19-12.68,21.87-.5-6.39,8.45-27.35,4-38.09A18.28,18.28,0,0,1,747.6,716.37Z"/><path class="cls-32" d="M745.23,770.13c4.58,4.58,8.21,18.06-3.62,18.48-.56-1.73-1.09-3.38-1.57-4.93-.45-4.43-1.19-7.83-2.25-9.54l-1.06-1.71c-5-8-7.42-12.06-8.86-12.32a14.14,14.14,0,0,1,0-4.3,14,14,0,0,1,.82-3.11,14.53,14.53,0,0,0,10.19-.19C739.51,761,740.65,765.55,745.23,770.13Z"/><path class="cls-23" d="M742.84,714.42c4.46,10.74-4.49,31.7-4,38.09a14.53,14.53,0,0,1-10.19.19,14.42,14.42,0,0,1,1.69-3.17L720,742.68l1.19-10.32-2.86,1.14a2.91,2.91,0,0,1-2.78-.67c0-.73-.08-1.45-.08-2.19a28.45,28.45,0,0,1,.7-6.34h0c5.86-4.06,7.88,3.49,7.88,3.49S730.13,711.34,742.84,714.42Z"/><path class="cls-31" d="M742.33,838.64l12.51-2.72-.46.43a7.46,7.46,0,0,1-4.28,1.76C748,838.26,745.36,838.45,742.33,838.64Z"/><path class="cls-31" d="M741.61,788.61l-1.19,0c-.1-1.77-.23-3.43-.38-5C740.52,785.23,741.05,786.88,741.61,788.61Z"/><path class="cls-31" d="M756,826.91a7.36,7.36,0,0,0-4.6-3.45,91.24,91.24,0,0,0-11.73-2.1,260.2,260.2,0,0,0,.78-32.72l1.19,0c5.1,15.7,13.19,37.08,19.16,36.21A34.63,34.63,0,0,0,756,826.91Z"/><path class="cls-32" d="M742.84,714.42c-12.71-3.08-18.79,13.36-18.79,13.36s-2-7.55-7.88-3.49h0c2-8.6,7.75-15.12,14.89-16.34a16.7,16.7,0,0,1,2.44.07C738.54,708.52,741.4,710.93,742.84,714.42Z"/><path class="cls-33" d="M740,783.68c.15,1.53.28,3.19.38,5-5.4.08-15.46-.28-25.53-.75h0a51.13,51.13,0,0,0,3.25-13.57c3.66-5.72,6.62-10.23,8.28-12.53a8.48,8.48,0,0,0,1.63-.8,7,7,0,0,1-.19-.87c1.44.26,3.86,4.3,8.86,12.32C736.73,772.43,738,777.11,740,783.68Z"/><path class="cls-31" d="M754.84,835.92l-12.51,2.72-4.91.29a161.42,161.42,0,0,0,2.22-17.57,91.24,91.24,0,0,1,11.73,2.1,7.36,7.36,0,0,1,4.6,3.45h0l-2.73,8.47s.83-.16,2.39-.4Z"/><path class="cls-34" d="M737.79,774.14c1.06,1.71,1.8,5.11,2.25,9.54-2-6.57-3.31-11.25-3.31-11.25Z"/><path class="cls-33" d="M737.42,838.93c0,.28-.11.56-.17.82-.56,2.57-1.15,4.28-1.75,4.79a4.41,4.41,0,0,1-1.22.68,117.81,117.81,0,0,0-16-5.56C725.08,839.53,731.7,839.24,737.42,838.93Z"/><path class="cls-32" d="M733.5,708a16.7,16.7,0,0,0-2.44-.07,13.11,13.11,0,0,1,2.44-.22c5.7,0,10.79,3.37,14.1,8.63a18.28,18.28,0,0,0-4.76-2C741.4,710.93,738.54,708.52,733.5,708Z"/><path class="cls-23" d="M720,742.68l10.35,6.85a14.42,14.42,0,0,0-1.69,3.17,18.19,18.19,0,0,1-9-7.34Z"/><path class="cls-23" d="M727.87,760.11a7,7,0,0,0,.19.87,8.48,8.48,0,0,1-1.63.8C727.24,760.68,727.73,760.08,727.87,760.11Z"/><path class="cls-27" d="M727.84,755.81c-3.74,2.39-7.46-5.81-9.35-11l1.2.52a18.19,18.19,0,0,0,9,7.34A14,14,0,0,0,727.84,755.81Z"/><path class="cls-32" d="M720,742.68l-.31,2.68a24.1,24.1,0,0,1-2.28-4.37v0Z"/><path class="cls-27" d="M719.69,745.36l-1.2-.52c-.53-1.43-.91-2.62-1.12-3.29,0-.3,0-.5,0-.56A24.1,24.1,0,0,0,719.69,745.36Z"/><path class="cls-29" d="M718.28,839.66a117.81,117.81,0,0,1,16,5.56C727.4,848,701,848,684,848.55c-3.71.11-6.11-.28-7.59-1,1.93-3.54,5.84-6.66,12.81-8.69A256,256,0,0,0,718.28,839.66Z"/><path class="cls-23" d="M718.49,744.84l-1.55-.66a18.19,18.19,0,0,0,.43-2.63C717.58,742.22,718,743.41,718.49,744.84Z"/><path class="cls-32" d="M717.41,741a27.49,27.49,0,0,1-1.86-8.16,2.91,2.91,0,0,0,2.78.67l2.86-1.14L720,742.68,717.41,741Z"/><path class="cls-33" d="M716.16,760.35c3.25,1.61,7,2.63,10.27,1.43-1.66,2.3-4.62,6.81-8.28,12.53C718.65,769,718.13,764,716.16,760.35Z"/><path class="cls-23" d="M716.17,724.3a28.45,28.45,0,0,0-.7,6.34c0,.74,0,1.46.08,2.19C713.39,731.13,712.05,727.16,716.17,724.3Z"/><path class="cls-31" d="M714.89,787.89l-5.15-.25c3-4.8,5.88-9.36,8.41-13.33a51.13,51.13,0,0,1-3.25,13.57Z"/><path class="cls-31" d="M708,754.68a10.42,10.42,0,0,1,8.13,5.67A37.28,37.28,0,0,1,708,754.68Z"/><path class="cls-23" d="M716.16,760.35a10.42,10.42,0,0,0-8.13-5.67c5.94-1.86,8.12-7.07,8.91-10.5l1.55.66c1.89,5.16,5.61,13.36,9.35,11a14.14,14.14,0,0,0,0,4.3c-.14,0-.63.57-1.44,1.67C723.14,763,719.41,762,716.16,760.35Z"/><path class="cls-31" d="M708,754.68a37.28,37.28,0,0,0,8.13,5.67c2,3.66,2.49,8.68,2,14-2.53,4-5.4,8.53-8.41,13.33-12.93-.64-24.53-1.35-24.53-1.35,2.86-8.21,5.32-14.86,6.52-17.35C691.91,768.56,697,753.18,708,754.68Z"/><path class="cls-33" d="M713.08,820.67a7.45,7.45,0,0,1-7.27-10.27c2.84-6.91,6.41-15.7,9.08-22.51,10.07.47,20.13.83,25.53.75a260.2,260.2,0,0,1-.78,32.72A164.32,164.32,0,0,0,713.08,820.67Z"/><path class="cls-31" d="M679.12,837.27h0s16.75-27.47,30.62-49.63l5.15.25c-2.67,6.81-6.24,15.6-9.08,22.51a7.45,7.45,0,0,0,7.27,10.27,164.32,164.32,0,0,1,26.56.69,161.42,161.42,0,0,1-2.22,17.57c-5.72.31-12.34.6-19.14.73-9.13-2.39-18-3.25-25.7-1.62-1.19.25-2.32.54-3.37.84A72.71,72.71,0,0,1,679.12,837.27Z"/><path class="cls-29" d="M689.21,838.88c1-.3,2.18-.59,3.37-.84,7.68-1.63,16.57-.77,25.7,1.62A256,256,0,0,1,689.21,838.88Z"/><path class="cls-32" d="M691.73,768.94c-1.2,2.49-3.66,9.14-6.52,17.35,0,0-39,4.45-29.84-11.58s22.32-2.86,33.77-20c11-16.49,22.77-46.16,41.92-46.72-7.14,1.22-12.94,7.74-14.89,16.34-4.12,2.86-2.78,6.83-.62,8.53a27.49,27.49,0,0,0,1.86,8.16c0,.06,0,.26,0,.56a18.19,18.19,0,0,1-.43,2.63c-.79,3.43-3,8.64-8.91,10.5C697,753.18,691.91,768.56,691.73,768.94Z"/><path class="cls-33" d="M679.12,837.27a72.71,72.71,0,0,0,10.09,1.61c-7,2-10.88,5.15-12.81,8.69-5.77-2.73,2.52-10.13,2.72-10.3Z"/><path class="cls-31" d="M679.12,837.27c-5.91-1.46-9.29-3.71-8.3-7,2.85-9.63,9.26-29.26,14.39-43.94,0,0,11.6.71,24.53,1.35-13.87,22.16-30.62,49.63-30.62,49.63Z"/></g></g></svg>