<svg xmlns="http://www.w3.org/2000/svg" xmlns:xlink="http://www.w3.org/1999/xlink" viewBox="0 0 1274 1706"><defs><style>.cls-1{isolation:isolate;}.cls-15,.cls-16,.cls-17,.cls-2,.cls-23{fill:#3888fc;}.cls-3{fill:#b3d9ff;}.cls-4{fill:#71b2ff;}.cls-17,.cls-20,.cls-24,.cls-29,.cls-5{opacity:0.35;}.cls-6{fill:#7bb5ef;}.cls-7{fill:url(#linear-gradient);}.cls-18,.cls-19,.cls-20,.cls-21,.cls-22,.cls-24,.cls-25,.cls-26,.cls-27,.cls-28,.cls-29,.cls-30,.cls-8{fill:none;stroke-miterlimit:10;}.cls-8{stroke:#fff;}.cls-9{fill:#7feaaf;}.cls-10{opacity:0.8;}.cls-11{fill:url(#linear-gradient-2);}.cls-12{fill:url(#linear-gradient-3);}.cls-13{fill:url(#linear-gradient-4);}.cls-14{fill:url(#linear-gradient-5);}.cls-15{opacity:0.2;}.cls-15,.cls-16,.cls-17,.cls-18,.cls-23,.cls-24,.cls-25,.cls-26,.cls-28,.cls-29,.cls-30{mix-blend-mode:multiply;}.cls-16,.cls-18,.cls-19,.cls-21,.cls-22,.cls-25,.cls-26,.cls-27{opacity:0.5;}.cls-18,.cls-19,.cls-20,.cls-21,.cls-22,.cls-24,.cls-25,.cls-26,.cls-27,.cls-28,.cls-29,.cls-30{stroke:#3888fc;}.cls-20,.cls-21,.cls-22,.cls-24,.cls-25,.cls-26,.cls-27,.cls-28,.cls-29,.cls-30{stroke-linecap:round;}.cls-20{stroke-width:2px;}.cls-21,.cls-29{stroke-width:8px;}.cls-22,.cls-30{stroke-width:3px;}.cls-23,.cls-28,.cls-30{opacity:0.25;}.cls-24{stroke-width:4px;}.cls-25{stroke-width:6px;}.cls-26,.cls-27{stroke-dasharray:20 10;}.cls-28{stroke-width:5px;}.cls-31{fill:#5a5985;}.cls-32{fill:#f7c5b0;}.cls-33{fill:#453756;}.cls-34{fill:#e54b48;}.cls-35{fill:#db902e;}.cls-36{fill:#f88777;}.cls-37{fill:#efa389;}.cls-38{fill:#4f4f77;}</style><linearGradient id="linear-gradient" x1="300.81" y1="518.59" x2="526" y2="518.59" gradientUnits="userSpaceOnUse"><stop offset="0" stop-color="#abffd3"/><stop offset="0.06" stop-color="#98ffd8" stop-opacity="0.94"/><stop offset="0.22" stop-color="#6affe4" stop-opacity="0.81"/><stop offset="0.38" stop-color="#4fe" stop-opacity="0.7"/><stop offset="0.54" stop-color="#26fff5" stop-opacity="0.61"/><stop offset="0.7" stop-color="#11fffb" stop-opacity="0.55"/><stop offset="0.85" stop-color="#04fffe" stop-opacity="0.51"/><stop offset="1" stop-color="aqua" stop-opacity="0.5"/></linearGradient><linearGradient id="linear-gradient-2" x1="444" y1="859.64" x2="550.09" y2="859.64" xlink:href="#linear-gradient"/><linearGradient id="linear-gradient-3" x1="445.11" y1="840.74" x2="550.2" y2="840.74" xlink:href="#linear-gradient"/><linearGradient id="linear-gradient-4" x1="278.01" y1="1330.92" x2="554" y2="1330.92" xlink:href="#linear-gradient"/><linearGradient id="linear-gradient-5" x1="278" y1="1210.9" x2="553.93" y2="1210.9" xlink:href="#linear-gradient"/></defs><title>MongoDB_Isometric_Zoom3</title><g class="cls-1"><g id="bottom_block" data-name="bottom block"><polygon class="cls-2" points="1120 1024 1120 1269 666 1529 666 1289 1120 1024"/><polygon class="cls-3" points="1120 1024 666 1289 328 1078 775 841 1120 1024"/><polygon class="cls-4" points="666 1289 666 1529 328 1325.5 328 1078 666 1289"/></g><g id="middle_top_block" data-name="middle/top block"><polygon class="cls-2" points="1118.5 443 1118.5 698 664.5 960 664.5 702 1118.5 443"/><polygon class="cls-3" points="1118.5 443 664.5 702 326.5 508 775.5 254 1118.5 443"/><polygon class="cls-4" points="664.5 702 664.5 960 326.5 758 326.5 508 664.5 702"/></g><g id="Extended_blocks" data-name="Extended blocks"><g class="cls-5"><polygon class="cls-2" points="336.06 880.07 336.06 913.4 232.76 962 232.76 961.87 232.76 930.06 232.76 929.94 336.06 880.07"/><polygon class="cls-3" points="336.06 880.07 232.76 929.94 232.76 930.06 164 896.36 266.99 847 336.06 880.07"/><polygon class="cls-6" points="232.76 930.06 232.76 961.87 164 928.55 164 896.36 232.76 930.06"/></g></g><g id="Code_panels" data-name="Code panels"><path class="cls-7" d="M526,456.55V695.89a9.28,9.28,0,0,1-13.49,8.27c-47.11-24-201.88-103.85-208-120.27C297.21,564.53,303,332,303,332s-2,28,211.77,109A16.81,16.81,0,0,1,526,456.55Z"/><path class="cls-8" d="M480.49,576.59,317.69,481.3a16.24,16.24,0,0,1-8-14.29l1.55-86.11a9.67,9.67,0,0,1,14-8.45L480.09,444a31.21,31.21,0,0,1,18.13,28.77l-1.31,94.55A10.91,10.91,0,0,1,480.49,576.59Z"/><path class="cls-9" d="M303,332s1-13,49-19v57S307,347,303,332Z"/><g class="cls-10"><path class="cls-11" d="M549.17,899.65a6.19,6.19,0,0,1-9.39,5L447,848.19a6.17,6.17,0,0,1-3-5.54l1.2-28.94,104.88,63.82Z"/><path class="cls-12" d="M445.25,808.64l-.14,3.35L550,875.81l.21-4.93a6.18,6.18,0,0,0-3-5.54L450,806.13A3.1,3.1,0,0,0,445.25,808.64Zm11,3.7c.71-.16,1.48.51,1.71,1.51s-.17,1.95-.88,2.11-1.49-.51-1.72-1.51A1.67,1.67,0,0,1,456.24,812.34Zm-4-2.34c.72-.16,1.5.53,1.73,1.54s-.16,2-.88,2.15-1.5-.53-1.73-1.55A1.69,1.69,0,0,1,452.24,810Zm-4-2.41c.73-.17,1.51.54,1.75,1.57s-.16,2-.89,2.18-1.51-.54-1.75-1.57S447.52,807.76,448.25,807.59Z"/></g><path class="cls-13" d="M295,1387.23l203.85,127.09c24,15,55.05-2.29,55.05-30.55V1314H554L278.13,1142,278,1356.66A36,36,0,0,0,295,1387.23Z"/><path class="cls-14" d="M541.22,1270,291.83,1114.54a9,9,0,0,0-13.77,7.59l-.06,14.52,275.87,172,.06-15.58A27,27,0,0,0,541.22,1270ZM293.15,1137.25c-2.37.65-5-1.56-6-4.94s.25-6.63,2.62-7.28,5,1.56,6,4.94S295.52,1136.6,293.15,1137.25Zm13.41,7.18c-2.35.64-5-1.53-5.9-4.84s.26-6.53,2.62-7.18,5,1.53,5.91,4.84S308.92,1143.78,306.56,1144.43ZM320,1152.5c-2.34.64-5-1.48-5.85-4.74s.28-6.43,2.62-7.07,5,1.49,5.85,4.75S322.32,1151.86,320,1152.5Z"/><ellipse class="cls-15" cx="345.99" cy="437.93" rx="34.72" ry="24.08" transform="translate(-111.38 757.78) rotate(-86.65)"/><path class="cls-16" d="M346,437.93l23.72,4.77c-2.23,17.6-13.44,30.61-25.75,29.9-13.18-.78-23.12-17.06-22-36.08s12.88-34,26.07-33.26Z"/><path class="cls-16" d="M346,437.93l16.16,24.72c-4.95,6.73-11.54,10.33-18.19,10-13.18-.78-23.12-17.06-22-36.08s12.88-34,26.07-33.26Z"/><ellipse class="cls-16" cx="454" cy="647.89" rx="9.47" ry="6.57" transform="translate(-219.28 1063.31) rotate(-86.65)"/><ellipse class="cls-16" cx="312" cy="1268.89" rx="9.47" ry="6.57" transform="translate(-972.93 1506.32) rotate(-86.65)"/><ellipse class="cls-16" cx="309" cy="1326.89" rx="9.47" ry="6.57" transform="translate(-1033.66 1557.94) rotate(-86.65)"/><ellipse class="cls-17" cx="473.59" cy="658.5" rx="9.47" ry="6.57" transform="translate(-211.43 1092.85) rotate(-86.65)"/><ellipse class="cls-17" cx="493.99" cy="668.29" rx="9.47" ry="6.57" transform="translate(-201.99 1122.44) rotate(-86.65)"/><polyline class="cls-18" points="377 431 392 425 409.5 432.5"/><line class="cls-19" x1="373.5" y1="455.5" x2="409.5" y2="469.5"/><polyline class="cls-19" points="354.5 474.5 354.5 487.5 373.5 497.5"/><line class="cls-20" x1="413.5" y1="443.5" x2="456.5" y2="462.5"/><line class="cls-21" x1="418.5" y1="434" x2="459.38" y2="453"/><line class="cls-21" x1="382.48" y1="492.12" x2="421.37" y2="514.92"/><line class="cls-21" x1="418.83" y1="471" x2="447.79" y2="484.46"/><line class="cls-20" x1="411.44" y1="478.03" x2="478.39" y2="510.72"/><line class="cls-22" x1="466.27" y1="541.22" x2="488.76" y2="553.97"/><line class="cls-22" x1="465.27" y1="546.22" x2="487.76" y2="558.97"/><line class="cls-22" x1="464.27" y1="551.22" x2="486.76" y2="563.97"/><line class="cls-20" x1="377.91" y1="498.49" x2="393.71" y2="508.53"/><line class="cls-20" x1="407.76" y1="483.31" x2="474.71" y2="516"/><path class="cls-16" d="M384.69,555.41,312,515.67a7,7,0,0,1-3.6-5.47h0a7,7,0,0,1,10.28-6.76l72.73,39.66a7,7,0,0,1,3.63,6v.09A7,7,0,0,1,384.69,555.41Z"/><path class="cls-23" d="M363.76,557.59,311.29,529a1.93,1.93,0,0,1-.78-.77h0a2,2,0,0,1,2.68-2.71l52.46,28.6a2,2,0,0,1,.86.93v0A2,2,0,0,1,363.76,557.59Z"/><path class="cls-23" d="M363.76,566.59,311.29,538a1.93,1.93,0,0,1-.78-.77h0a2,2,0,0,1,2.68-2.71l52.46,28.6a2,2,0,0,1,.86.93v0A2,2,0,0,1,363.76,566.59Z"/><path class="cls-23" d="M363.76,575.59,311.29,547a1.93,1.93,0,0,1-.78-.77h0a2,2,0,0,1,2.68-2.71l52.46,28.6a2,2,0,0,1,.86.93v0A2,2,0,0,1,363.76,575.59Z"/><path class="cls-23" d="M434.76,595.59,382.29,567a1.93,1.93,0,0,1-.78-.77h0a2,2,0,0,1,2.68-2.71l52.46,28.6a2,2,0,0,1,.86.93v0A2,2,0,0,1,434.76,595.59Z"/><path class="cls-23" d="M434.76,604.59,382.29,576a1.93,1.93,0,0,1-.78-.77h0a2,2,0,0,1,2.68-2.71l52.46,28.6a2,2,0,0,1,.86.93v0A2,2,0,0,1,434.76,604.59Z"/><path class="cls-23" d="M434.76,613.59,382.29,585a1.93,1.93,0,0,1-.78-.77h0a2,2,0,0,1,2.68-2.71l52.46,28.6a2,2,0,0,1,.86.93v0A2,2,0,0,1,434.76,613.59Z"/><path class="cls-23" d="M499.76,629.59,447.29,601a1.93,1.93,0,0,1-.78-.77h0a2,2,0,0,1,2.68-2.71l52.46,28.6a2,2,0,0,1,.86.93v0A2,2,0,0,1,499.76,629.59Z"/><path class="cls-23" d="M499.76,638.59,447.29,610a1.93,1.93,0,0,1-.78-.77h0a2,2,0,0,1,2.68-2.71l52.46,28.6a2,2,0,0,1,.86.93v0A2,2,0,0,1,499.76,638.59Z"/><path class="cls-23" d="M499.76,647.59,447.29,619a1.93,1.93,0,0,1-.78-.77h0a2,2,0,0,1,2.68-2.71l52.46,28.6a2,2,0,0,1,.86.93v0A2,2,0,0,1,499.76,647.59Z"/><polyline class="cls-24" points="512 1485 389.62 1413.25 390 1262"/><path class="cls-25" d="M391,1359s20-34,28,17,29,51,48,19,53-99,50-20"/><path class="cls-23" d="M517,1375c3-79-31-12-50,20s-40,32-48-19-28-17-28-17l-1,54,122,72Z"/><polyline class="cls-26" points="484.06 1468.6 487.29 1360.78 389.62 1303.5"/><polyline class="cls-27" points="389.72 1373.5 422.27 1391.67 420.17 1431.16"/><polygon class="cls-23" points="360 1264 293 1220.67 293 1180 360 1223.33 360 1264"/><polygon class="cls-23" points="373.02 1262 334.51 1237.34 334.51 1217 373.02 1241.66 373.02 1262"/><polygon class="cls-23" points="459.02 1342 428.21 1322.27 428.21 1306 459.02 1325.73 459.02 1342"/><line class="cls-28" x1="293.5" y1="1246.5" x2="293.5" y2="1355"/><line class="cls-29" x1="326.89" y1="1269.02" x2="366.5" y2="1292.5"/><line class="cls-30" x1="323.89" y1="1281.02" x2="349" y2="1296"/><line class="cls-30" x1="323.89" y1="1288.02" x2="366" y2="1312"/><line class="cls-30" x1="323.89" y1="1296.02" x2="336" y2="1303"/><line class="cls-30" x1="339.89" y1="1305.02" x2="352" y2="1312"/><line class="cls-30" x1="317.89" y1="1341.02" x2="330" y2="1348"/><line class="cls-30" x1="334.89" y1="1351.02" x2="360" y2="1365"/><line class="cls-30" x1="315.89" y1="1348.02" x2="341" y2="1362"/><line class="cls-30" x1="313.89" y1="1355.02" x2="332" y2="1365"/><line class="cls-30" x1="335.89" y1="1368.02" x2="354" y2="1378"/><line class="cls-29" x1="322.89" y1="1329.02" x2="362.5" y2="1352.5"/></g><g id="People"><path class="cls-31" d="M418.79,926.6c-.42.66-13.8,21.81-14,23.7-.1,1.3.83,18,1.45,28.78-.78,2.47-1.9,6-3.26,10.42l-13.39,1.31-.88-.26s-4.89-30.69-1-40.47c3.44-8.62,13.26-28.81,20.29-36.27a12.59,12.59,0,0,1,2.65-2.25c6.94-4.1,14.16-7,16.12-7.24-1.73,2.19,9.18,6.57,12.35,1a35.47,35.47,0,0,1,9.5,4,24.23,24.23,0,0,1,3.92,3c5.41,5.1,23.92,2,23.92,2s3.56-34.28,4.43-35.37a1.51,1.51,0,0,1,1-.34c6.11,3.19,10.52,1.06,10.52,1.06l2,.38s1.27,41.65-3.86,47.45-6.7,6.06-18.76,6.24-14.66-1.19-14.66-1.19l-7.65,46.37s-.41.12-1.18.3a64.82,64.82,0,0,1-9.45,1.46l-31.42-5.18-.09.26-.68-.32s-.52-17.52,3-26.94C413.07,939.12,418.58,927.07,418.79,926.6Z"/><path class="cls-32" d="M491.31,856.36c4.22,5.39,2.1,19.18,1.11,23.18-3.37-.58-8.38-1.3-10.52-1.06,0,0-7.68-12.64-4.88-13.57s5.83,4.74,6.47,6.35S487.08,851,491.31,856.36Z"/><path class="cls-31" d="M492.42,879.54s-4.41,2.13-10.52-1.06C484,878.24,489.05,879,492.42,879.54Z"/><path class="cls-33" d="M459.68,1104.2c4.65,2.23,10.84,6.92,5.58,8.45s-36-10.87-35.69-16.71a31,31,0,0,1,1.54-8.11,24,24,0,0,0,14.33-1C449.34,1092,456,1102.41,459.68,1104.2Z"/><path class="cls-34" d="M445.83,1048a131.36,131.36,0,0,0,5.25,35.76,25.09,25.09,0,0,1-5.64,3.09,15.9,15.9,0,0,0-2.33-2.65c-2.71-2-11.25,1.67-11.25,1.67a18.2,18.2,0,0,0-.75,1.95c-2.1-.51-3.31-1.16-3.17-1.28.41-.35-6.25-69.16-6.25-69.16.84-3.37,1.51-5.81,1.94-6.92,2.95-7.52,15.25-29.92,15.25-29.92a64.82,64.82,0,0,0,9.45-1.46C449.51,983.86,445.56,1027.4,445.83,1048Z"/><path class="cls-34" d="M443.11,1084.21a15.9,15.9,0,0,1,2.33,2.65,24,24,0,0,1-14.33,1,18.2,18.2,0,0,1,.75-1.95S440.4,1082.16,443.11,1084.21Z"/><path class="cls-35" d="M443.53,899.47c2.87,2.95,6.81,5,5.14,9.82a35.47,35.47,0,0,0-9.5-4,22,22,0,0,1-.06-4.85,27.74,27.74,0,0,1,.5-3.48,13.86,13.86,0,0,0,3.79-3.63C442.56,894.91,441.64,897.52,443.53,899.47Z"/><path class="cls-31" d="M407.46,975.37l31.42,5.18c-8.15.7-19.93.32-31.51-4.92Z"/><path class="cls-32" d="M428,896.36l-.14,0h0c-3.31-2.64-5.44-7.33-5.46-12.65.66-3,3.17-6.92,4-8.13a23.12,23.12,0,0,1,.65,5.22c-.18,2.3,7.81-6.26,19.68-.8a20,20,0,0,1,.07,4,19,19,0,0,1-2.48,8.06h0a7.82,7.82,0,0,0-.84,1.28v0a13.86,13.86,0,0,1-3.79,3.63h0A17.13,17.13,0,0,0,428,896.36Z"/><path class="cls-35" d="M438,867.81c4.58,1.47,8,6.29,8.66,12.23-11.87-5.46-19.86,3.1-19.68.8a23.12,23.12,0,0,0-.65-5.22c-.33-1.58-.67-2.84-.67-2.84h0c2.53-3.58,6.23-5.71,10.19-5.39a10.16,10.16,0,0,1,2.13.41Z"/><path class="cls-36" d="M438.88,980.55s-12.3,22.4-15.25,29.92c-.43,1.11-1.1,3.55-1.94,6.92-4.86,19.6-15.22,70.52-15.22,70.52a15,15,0,0,1-8.65-.14,35.9,35.9,0,0,0-4-6c-2.54-2.27-10.58-4.33-10.58-4.33s-.36,1-.86,2.66c-1.9-1.29-3.06-2.2-3.06-2.2-.93-5.61,9.17-40.72,17.52-68.32a12.58,12.58,0,0,0,4-.22s2.63-3.67,1.84-13.06c0,0,1.9,5.2,2.9,2.57s-1-9.57-1-9.57a17.42,17.42,0,0,0,2.24-1.2s-.23-3.83-.53-9.06l1.09-3.45C419,980.87,430.73,981.25,438.88,980.55Z"/><path class="cls-32" d="M439.61,897h0a10.16,10.16,0,0,1-6.3,1.64,9.92,9.92,0,0,1-4.95-1.83c-.19-.2-.32-.36-.4-.45A17.13,17.13,0,0,1,439.61,897Z"/><path class="cls-37" d="M439.61,897a27.74,27.74,0,0,0-.5,3.48c-3,4.2-9-1.76-10.75-3.67a9.92,9.92,0,0,0,4.95,1.83A10.16,10.16,0,0,0,439.61,897Z"/><path class="cls-32" d="M439.11,900.48a22,22,0,0,0,.06,4.85c-3.17,5.56-14.08,1.18-12.35-1s1-7.73,1-7.92c.18.15.36.28.54.41C430.1,898.72,436.07,904.68,439.11,900.48Z"/><path class="cls-35" d="M422.36,883.75c0,5.32,2.15,10,5.46,12.65,0,.19.71,5.77-1,7.92-2,.23-9.18,3.14-16.12,7.24a12.59,12.59,0,0,0-2.65,2.25s-10,.6-6.81-5.35,10.47-9.25,10.78-13.11-3.43-10.37-.8-14a38.63,38.63,0,0,1,10.91-10c3.65-2,5.2-7.91,15.85-3.52a10.16,10.16,0,0,0-2.13-.41c-4-.32-7.66,1.81-10.19,5.39a18.69,18.69,0,0,0-3.24,9.24C422.38,882.61,422.35,883.18,422.36,883.75Z"/><path class="cls-33" d="M408.69,1103.09c4.44,2.61,10.23,7.78,4.87,8.88s-35-13.78-34.2-19.59a86.6,86.6,0,0,1,3-12.24c3.53,2.39,9.6,6.08,15.44,7.63C401.25,1093.49,405.74,1101.35,408.69,1103.09Z"/><path class="cls-32" d="M428,896.36c.08.09.21.25.4.45-.18-.13-.36-.26-.54-.41h0Z"/><path class="cls-35" d="M425.66,872.78s.34,1.26.67,2.84c-.8,1.21-3.31,5.16-4,8.13,0-.57,0-1.14.06-1.73a18.69,18.69,0,0,1,3.24-9.24Z"/><path class="cls-38" d="M418.79,926.6c-.21.47-5.72,12.52-9.14,21.77-3.48,9.42-3,26.94-3,26.94l.68.32-1.09,3.45c-.62-10.77-1.55-27.48-1.45-28.78C405,948.41,418.37,927.26,418.79,926.6Z"/><path class="cls-32" d="M404.57,989.34s2,6.93,1,9.57-2.9-2.57-2.9-2.57c.79,9.39-1.84,13.06-1.84,13.06a12.58,12.58,0,0,1-4,.22c2.2-7.27,4.28-14,6-19.56C403.49,989.82,404.07,989.57,404.57,989.34Z"/><path class="cls-31" d="M406.28,979.08c.3,5.23.53,9.06.53,9.06a17.42,17.42,0,0,1-2.24,1.2l-1.55.16C404.38,985.13,405.5,981.55,406.28,979.08Z"/><path class="cls-31" d="M403,989.5l1.55-.16c-.5.23-1.08.48-1.72.72C402.9,989.87,403,989.68,403,989.5Z"/><path class="cls-31" d="M389.63,990.81,403,989.5c-.06.18-.12.37-.17.56A21.84,21.84,0,0,1,389.63,990.81Z"/><path class="cls-36" d="M393.82,1081.81a35.9,35.9,0,0,1,4,6c-5.84-1.55-11.91-5.24-15.44-7.63.5-1.61.86-2.66.86-2.66S391.28,1079.54,393.82,1081.81Z"/><path class="cls-32" d="M402.85,990.06c-1.73,5.55-3.81,12.29-6,19.56-10.31-1.3-7.22-18.81-7.22-18.81h0A21.84,21.84,0,0,0,402.85,990.06Z"/></g></g></svg>