<svg xmlns="http://www.w3.org/2000/svg" xmlns:xlink="http://www.w3.org/1999/xlink" viewBox="0 0 1236 1706"><defs><style>.cls-1{isolation:isolate;}.cls-2{fill:#012677;}.cls-18,.cls-21,.cls-22,.cls-23,.cls-29,.cls-3{fill:#3888fc;}.cls-4{fill:#b3d9ff;}.cls-5{fill:#71b2ff;}.cls-6{fill:url(#linear-gradient);}.cls-7{fill:url(#linear-gradient-2);}.cls-8{fill:url(#linear-gradient-3);}.cls-9{fill:#3b82ff;}.cls-10,.cls-23,.cls-26,.cls-30,.cls-38,.cls-41,.cls-46{opacity:0.35;}.cls-11{fill:#7bb5ef;}.cls-12{fill:url(#linear-gradient-4);}.cls-13,.cls-24,.cls-25,.cls-26,.cls-27,.cls-28,.cls-30,.cls-31,.cls-39,.cls-40,.cls-41,.cls-42,.cls-43,.cls-44,.cls-45,.cls-46,.cls-47,.cls-48,.cls-50,.cls-51,.cls-52,.cls-53{fill:none;stroke-miterlimit:10;}.cls-13{stroke:#fff;}.cls-14{fill:#7feaaf;}.cls-15,.cls-21,.cls-24,.cls-25,.cls-27,.cls-28,.cls-42{opacity:0.5;}.cls-16{fill:url(#linear-gradient-5);}.cls-17{fill:url(#linear-gradient-6);}.cls-18,.cls-43,.cls-52{opacity:0.2;}.cls-18,.cls-21,.cls-22,.cls-23,.cls-24,.cls-29,.cls-30,.cls-31,.cls-38,.cls-41,.cls-42,.cls-43,.cls-44,.cls-45,.cls-46,.cls-47,.cls-48,.cls-49,.cls-52,.cls-53{mix-blend-mode:multiply;}.cls-19{fill:url(#linear-gradient-7);}.cls-20{fill:url(#linear-gradient-8);}.cls-22,.cls-45,.cls-48{opacity:0.25;}.cls-24,.cls-25,.cls-26,.cls-27,.cls-28,.cls-30,.cls-31,.cls-39,.cls-40,.cls-41,.cls-42,.cls-43,.cls-44,.cls-45,.cls-46,.cls-47,.cls-48,.cls-50,.cls-51,.cls-52,.cls-53{stroke:#3888fc;}.cls-26,.cls-27,.cls-28,.cls-30,.cls-31,.cls-39,.cls-40,.cls-41,.cls-42,.cls-43,.cls-44,.cls-45,.cls-46,.cls-47,.cls-48,.cls-50,.cls-51,.cls-52,.cls-53{stroke-linecap:round;}.cls-26{stroke-width:2px;}.cls-27{stroke-width:8px;}.cls-28,.cls-31{stroke-width:3px;}.cls-29,.cls-31,.cls-44,.cls-47{opacity:0.15;}.cls-30{stroke-width:6px;}.cls-32{fill:url(#linear-gradient-9);}.cls-33{fill:url(#linear-gradient-10);}.cls-34{fill:url(#linear-gradient-11);}.cls-35{fill:url(#linear-gradient-12);}.cls-36{fill:url(#linear-gradient-13);}.cls-37{fill:url(#linear-gradient-14);}.cls-39,.cls-40{stroke-width:5px;}.cls-40{stroke-dasharray:4.86 19.44;}.cls-41,.cls-42,.cls-43,.cls-44,.cls-45{stroke-width:11px;}.cls-46,.cls-47,.cls-48,.cls-50,.cls-51,.cls-52,.cls-53{stroke-width:4px;}.cls-49,.cls-53{opacity:0.1;}.cls-51{stroke-dasharray:1.19 11.9;}.cls-54{fill:url(#linear-gradient-15);}.cls-55{fill:#5a5886;}.cls-56{fill:#453756;}.cls-57{fill:#595fc6;}.cls-58{fill:#9080b9;}.cls-59{fill:#f9b26b;}.cls-60{fill:#93542a;}.cls-61{fill:#fff;}.cls-62{fill:#f56856;}.cls-63{fill:#823e17;}.cls-64{fill:#a68ce7;}.cls-65{fill:#f78676;}.cls-66{fill:#00c6b3;}</style><linearGradient id="linear-gradient" x1="545.61" y1="1048.91" x2="523.07" y2="1193.59" gradientUnits="userSpaceOnUse"><stop offset="0" stop-color="#fff" stop-opacity="0"/><stop offset="0.06" stop-color="#6abeff" stop-opacity="0.02"/><stop offset="0.53" stop-color="#3166ff" stop-opacity="0.84"/><stop offset="0.78" stop-color="#0636a1" stop-opacity="0.99"/><stop offset="0.96" stop-color="#002f94"/></linearGradient><linearGradient id="linear-gradient-2" x1="537.33" y1="834.69" x2="537.33" y2="1200" gradientUnits="userSpaceOnUse"><stop offset="0" stop-color="#fff" stop-opacity="0"/><stop offset="0.07" stop-color="#fff7f6" stop-opacity="0.1"/><stop offset="0.33" stop-color="#ffd6d3" stop-opacity="0.48"/><stop offset="0.55" stop-color="#ffbeba" stop-opacity="0.76"/><stop offset="0.71" stop-color="#ffb0aa" stop-opacity="0.93"/><stop offset="0.78" stop-color="#ffaaa4"/></linearGradient><linearGradient id="linear-gradient-3" x1="547.09" y1="380.83" x2="523.9" y2="529.67" gradientUnits="userSpaceOnUse"><stop offset="0" stop-color="#fff" stop-opacity="0"/><stop offset="0.12" stop-color="#6abeff" stop-opacity="0.02"/><stop offset="0.53" stop-color="#3166ff" stop-opacity="0.84"/><stop offset="0.78" stop-color="#0636a1" stop-opacity="0.99"/><stop offset="0.96" stop-color="#002f94"/></linearGradient><linearGradient id="linear-gradient-4" x1="96.81" y1="1166.59" x2="322" y2="1166.59" gradientUnits="userSpaceOnUse"><stop offset="0" stop-color="#abffd3"/><stop offset="0.06" stop-color="#98ffd8" stop-opacity="0.94"/><stop offset="0.22" stop-color="#6affe4" stop-opacity="0.81"/><stop offset="0.38" stop-color="#4fe" stop-opacity="0.7"/><stop offset="0.54" stop-color="#26fff5" stop-opacity="0.61"/><stop offset="0.7" stop-color="#11fffb" stop-opacity="0.55"/><stop offset="0.85" stop-color="#04fffe" stop-opacity="0.51"/><stop offset="1" stop-color="aqua" stop-opacity="0.5"/></linearGradient><linearGradient id="linear-gradient-5" x1="1872.4" y1="696.28" x2="1936.2" y2="696.28" gradientTransform="matrix(-1, -0.04, -0.04, 1, 2055.15, 60.63)" xlink:href="#linear-gradient-4"/><linearGradient id="linear-gradient-6" x1="1872.5" y1="684.94" x2="1936.3" y2="684.94" gradientTransform="matrix(-1, -0.04, -0.04, 1, 2055.15, 60.63)" xlink:href="#linear-gradient-4"/><linearGradient id="linear-gradient-7" x1="-1116.39" y1="829.1" x2="-949.94" y2="829.1" gradientTransform="translate(1149.09 -76.78) rotate(-2.45)" xlink:href="#linear-gradient-4"/><linearGradient id="linear-gradient-8" x1="-1112.55" y1="780.53" x2="-949.62" y2="780.53" gradientTransform="translate(1149.09 -76.78) rotate(-2.45)" xlink:href="#linear-gradient-4"/><linearGradient id="linear-gradient-9" x1="789.77" y1="431.24" x2="941.08" y2="431.24" gradientUnits="userSpaceOnUse"><stop offset="0" stop-color="aqua" stop-opacity="0.5"/><stop offset="0.15" stop-color="#04fffe" stop-opacity="0.51"/><stop offset="0.3" stop-color="#11fffb" stop-opacity="0.55"/><stop offset="0.46" stop-color="#26fff5" stop-opacity="0.61"/><stop offset="0.62" stop-color="#4fe" stop-opacity="0.7"/><stop offset="0.78" stop-color="#6affe4" stop-opacity="0.81"/><stop offset="0.94" stop-color="#98ffd8" stop-opacity="0.94"/><stop offset="1" stop-color="#abffd3"/></linearGradient><linearGradient id="linear-gradient-10" x1="790.01" y1="404.35" x2="941.32" y2="404.35" xlink:href="#linear-gradient-9"/><linearGradient id="linear-gradient-11" x1="949.77" y1="1069.24" x2="1101.08" y2="1069.24" gradientTransform="matrix(-1, 0, 0, 1, 1993.09, 0)" xlink:href="#linear-gradient-9"/><linearGradient id="linear-gradient-12" x1="950.01" y1="1042.35" x2="1101.32" y2="1042.35" gradientTransform="matrix(-1, 0, 0, 1, 1993.09, 0)" xlink:href="#linear-gradient-9"/><linearGradient id="linear-gradient-13" x1="524" y1="770.38" x2="873" y2="770.38" xlink:href="#linear-gradient-9"/><linearGradient id="linear-gradient-14" x1="523.85" y1="661.19" x2="873" y2="661.19" xlink:href="#linear-gradient-9"/><linearGradient id="linear-gradient-15" x1="537.33" y1="33" x2="537.33" y2="535" gradientUnits="userSpaceOnUse"><stop offset="0" stop-color="#fff" stop-opacity="0"/><stop offset="0.13" stop-color="#ffeeed" stop-opacity="0.2"/><stop offset="0.44" stop-color="#ffcac6" stop-opacity="0.62"/><stop offset="0.65" stop-color="#ffb3ae" stop-opacity="0.89"/><stop offset="0.75" stop-color="#ffaaa4"/></linearGradient></defs><title>MongoDB_Isometric_Zoom1</title><g class="cls-1"><g id="middle_top_block" data-name="middle/top block"><polygon class="cls-2" points="563 1174 698 1098 539 1006 407 1085 563 1174"/><polygon class="cls-3" points="933.5 1089 933.5 1344 479.5 1606 479.5 1348 933.5 1089"/><polygon class="cls-4" points="933.5 1089 479.5 1348 141.5 1154 590.5 900 933.5 1089"/><polygon class="cls-5" points="479.5 1348 479.5 1606 141.5 1404 141.5 1154 479.5 1348"/><polygon class="cls-6" points="546 1199 681 1123 530 1042 389 1111 546 1199"/><polygon class="cls-7" points="389.33 1111.69 546.33 1200 681.33 1124 685.33 834.69 545.33 893.69 392.33 834.69 389.33 1111.69"/><polygon class="cls-3" points="933.5 447 933.5 702 479.5 964 479.5 706 933.5 447"/><polygon class="cls-4" points="933.5 447 479.5 706 141.5 512 590.5 258 933.5 447"/><polygon class="cls-5" points="479.5 706 479.5 964 141.5 762 141.5 512 479.5 706"/><polygon class="cls-8" points="546 535 680.68 460.05 520 372 391 446 546 535"/></g><g id="Extended_blocks" data-name="Extended blocks"><polygon class="cls-9" points="1160.5 1347 1160.5 1479 819.5 1668 819.5 1541.79 819.62 1541.72 1160.5 1347"/><polygon class="cls-4" points="1160.5 1347 819.62 1541.72 819.5 1541.5 592.5 1408 592.5 1405 932.5 1216 1160.5 1347"/><polygon class="cls-5" points="819.5 1541.5 819.62 1541.72 819.5 1541.79 819.5 1668 818.85 1669.13 592.5 1539 592.5 1408 819.5 1541.5"/><g class="cls-10"><polygon class="cls-3" points="1180.29 818.49 1180.29 872.39 1013.22 951 1013.22 950.8 1013.22 899.35 1013.22 899.14 1180.29 818.49"/><polygon class="cls-4" points="1180.29 818.49 1013.22 899.14 1013.22 899.35 902 844.83 1068.58 765 1180.29 818.49"/><polygon class="cls-11" points="1013.22 899.35 1013.22 950.8 902 896.89 902 844.83 1013.22 899.35"/></g><polygon class="cls-9" points="1160.5 1219 1160.5 1351 819.5 1543.5 819.5 1543 819.5 1417 819.5 1416.5 1160.5 1219"/><polygon class="cls-4" points="1160.5 1219 819.5 1416.5 819.5 1417 592.5 1283.5 932.5 1088 1160.5 1219"/><polygon class="cls-5" points="819.5 1417 819.5 1543 592.5 1411 592.5 1283.5 819.5 1417"/></g><g id="Code_panels" data-name="Code panels"><path class="cls-12" d="M322,1104.55v239.34a9.28,9.28,0,0,1-13.49,8.27c-47.11-24-201.88-103.85-208-120.27C93.21,1212.53,99,980,99,980s-2,28,211.77,109A16.81,16.81,0,0,1,322,1104.55Z"/><path class="cls-13" d="M276.49,1224.59l-162.8-95.29a16.24,16.24,0,0,1-8-14.29l1.55-86.11a9.67,9.67,0,0,1,14-8.45L276.09,1092a31.21,31.21,0,0,1,18.13,28.77l-1.31,94.55A10.91,10.91,0,0,1,276.49,1224.59Z"/><path class="cls-14" d="M99,980s1-13,49-19v57S103,995,99,980Z"/><g class="cls-15"><path class="cls-16" d="M154.38,700.48a3.67,3.67,0,0,1-5.57,3L93.7,669.92a3.66,3.66,0,0,1-1.76-3.29l.72-17.18,62.27,37.9Z"/><path class="cls-17" d="M92.68,646.44l-.08,2,62.27,37.9.13-2.93a3.67,3.67,0,0,0-1.76-3.28L95.47,645A1.84,1.84,0,0,0,92.68,646.44Zm6.52,2.2c.43-.1.88.3,1,.89a1,1,0,0,1-.52,1.26c-.43.09-.89-.31-1-.9S98.78,648.73,99.2,648.64Zm-2.37-1.39c.43-.1.89.31,1,.91s-.1,1.18-.53,1.27-.89-.31-1-.91S96.4,647.34,96.83,647.25Zm-2.37-1.44c.43-.09.9.32,1,.94s-.1,1.19-.53,1.29-.9-.32-1-.93S94,645.91,94.46,645.81Z"/></g><ellipse class="cls-18" cx="141.99" cy="1085.93" rx="34.72" ry="24.08" transform="translate(-950.38 1164.31) rotate(-86.65)"/><g class="cls-15"><path class="cls-19" d="M69,706.26v87.55a18,18,0,0,0,9.12,15.65L209,883.72a18,18,0,0,0,26.88-15.65V800.94"/><path class="cls-20" d="M226.75,778.76,81.5,697A8.39,8.39,0,0,0,69,704.34h0l166.89,93.72,0-3.49A18,18,0,0,0,226.75,778.76ZM79.27,706.11c-1.12.35-2.44-.65-3-2.24s0-3.18,1.1-3.53,2.44.64,3,2.23S80.39,705.75,79.27,706.11Zm6.56,3.15c-1.12.36-2.42-.63-2.92-2.19s0-3.13,1.1-3.48,2.42.62,2.92,2.19S86.94,708.9,85.83,709.26Zm6.57,3.58c-1.1.36-2.4-.61-2.89-2.14s0-3.08,1.11-3.43,2.4.61,2.89,2.14S93.51,712.49,92.4,712.84Z"/></g><path class="cls-21" d="M142,1085.93l23.72,4.77c-2.23,17.6-13.44,30.61-25.75,29.9-13.18-.78-23.12-17.06-22-36.08s12.88-34,26.07-33.26Z"/><path class="cls-21" d="M142,1085.93l16.16,24.72c-5,6.73-11.54,10.33-18.19,9.95-13.18-.78-23.12-17.06-22-36.08s12.88-34,26.07-33.26Z"/><ellipse class="cls-21" cx="250" cy="1295.89" rx="9.47" ry="6.57" transform="translate(-1058.27 1469.85) rotate(-86.65)"/><ellipse class="cls-22" cx="85" cy="789.89" rx="9.47" ry="6.57" transform="translate(-708.51 828.65) rotate(-86.65)"/><ellipse class="cls-23" cx="162" cy="831.89" rx="9.47" ry="6.57" transform="translate(-677.93 945.07) rotate(-86.65)"/><ellipse class="cls-23" cx="269.59" cy="1306.5" rx="9.47" ry="6.57" transform="translate(-1050.42 1499.39) rotate(-86.65)"/><ellipse class="cls-23" cx="289.99" cy="1316.29" rx="9.47" ry="6.57" transform="translate(-1040.98 1528.98) rotate(-86.65)"/><polyline class="cls-24" points="173 1079 188 1073 205.5 1080.5"/><line class="cls-25" x1="169.5" y1="1103.5" x2="205.5" y2="1117.5"/><polyline class="cls-25" points="150.5 1122.5 150.5 1135.5 169.5 1145.5"/><line class="cls-26" x1="209.5" y1="1091.5" x2="252.5" y2="1110.5"/><line class="cls-27" x1="214.5" y1="1082" x2="255.38" y2="1101"/><line class="cls-27" x1="178.48" y1="1140.12" x2="217.37" y2="1162.92"/><line class="cls-27" x1="214.83" y1="1119" x2="243.79" y2="1132.46"/><line class="cls-26" x1="207.44" y1="1126.03" x2="274.39" y2="1158.72"/><line class="cls-28" x1="262.27" y1="1189.22" x2="284.76" y2="1201.97"/><line class="cls-28" x1="261.27" y1="1194.22" x2="283.76" y2="1206.97"/><line class="cls-28" x1="260.27" y1="1199.22" x2="282.76" y2="1211.97"/><line class="cls-26" x1="173.91" y1="1146.49" x2="189.71" y2="1156.53"/><line class="cls-26" x1="203.76" y1="1131.31" x2="270.71" y2="1164"/><path class="cls-21" d="M180.69,1203.41,108,1163.67a7,7,0,0,1-3.6-5.47h0a7,7,0,0,1,10.28-6.76l72.73,39.66a7,7,0,0,1,3.63,6v.09A7,7,0,0,1,180.69,1203.41Z"/><path class="cls-22" d="M159.76,1205.59,107.29,1177a1.93,1.93,0,0,1-.78-.77h0a2,2,0,0,1,2.68-2.71l52.46,28.6a2,2,0,0,1,.86.93v0A2,2,0,0,1,159.76,1205.59Z"/><path class="cls-22" d="M159.76,1214.59,107.29,1186a1.93,1.93,0,0,1-.78-.77h0a2,2,0,0,1,2.68-2.71l52.46,28.6a2,2,0,0,1,.86.93v0A2,2,0,0,1,159.76,1214.59Z"/><path class="cls-22" d="M159.76,1223.59,107.29,1195a1.93,1.93,0,0,1-.78-.77h0a2,2,0,0,1,2.68-2.71l52.46,28.6a2,2,0,0,1,.86.93v0A2,2,0,0,1,159.76,1223.59Z"/><path class="cls-22" d="M230.76,1243.59,178.29,1215a1.93,1.93,0,0,1-.78-.77h0a2,2,0,0,1,2.68-2.71l52.46,28.6a2,2,0,0,1,.86.93v0A2,2,0,0,1,230.76,1243.59Z"/><path class="cls-22" d="M230.76,1252.59,178.29,1224a1.93,1.93,0,0,1-.78-.77h0a2,2,0,0,1,2.68-2.71l52.46,28.6a2,2,0,0,1,.86.93v0A2,2,0,0,1,230.76,1252.59Z"/><path class="cls-22" d="M230.76,1261.59,178.29,1233a1.93,1.93,0,0,1-.78-.77h0a2,2,0,0,1,2.68-2.71l52.46,28.6a2,2,0,0,1,.86.93v0A2,2,0,0,1,230.76,1261.59Z"/><path class="cls-22" d="M295.76,1277.59,243.29,1249a1.93,1.93,0,0,1-.78-.77h0a2,2,0,0,1,2.68-2.71l52.46,28.6a2,2,0,0,1,.86.93v0A2,2,0,0,1,295.76,1277.59Z"/><path class="cls-22" d="M295.76,1286.59,243.29,1258a1.93,1.93,0,0,1-.78-.77h0a2,2,0,0,1,2.68-2.71l52.46,28.6a2,2,0,0,1,.86.93v0A2,2,0,0,1,295.76,1286.59Z"/><path class="cls-22" d="M295.76,1295.59,243.29,1267a1.93,1.93,0,0,1-.78-.77h0a2,2,0,0,1,2.68-2.71l52.46,28.6a2,2,0,0,1,.86.93v0A2,2,0,0,1,295.76,1295.59Z"/><polygon class="cls-29" points="145 804 78 765.67 78 725 145 763.33 145 804"/><polygon class="cls-22" points="224 849 157 810.67 157 770 224 808.33 224 849"/><line class="cls-30" x1="97" y1="790" x2="129.09" y2="809"/><line class="cls-31" x1="95" y1="800" x2="116" y2="812.43"/><line class="cls-30" x1="174" y1="833" x2="220" y2="860.24"/><line class="cls-31" x1="171" y1="842" x2="186.2" y2="851"/><line class="cls-31" x1="191" y1="854" x2="206.2" y2="863"/><g class="cls-15"><path class="cls-32" d="M789.77,484.29a8.7,8.7,0,0,0,12.91,7.61l133.91-74a8.7,8.7,0,0,0,4.49-7.62V369.48L789.77,453.11Z"/><path class="cls-33" d="M934.87,358.55,794.51,436.13a8.69,8.69,0,0,0-4.5,7.61v7l151.31-83.63v-4.71A4.35,4.35,0,0,0,934.87,358.55ZM798.7,441.75c-.38,1.39-1.5,2.3-2.5,2s-1.5-1.63-1.12-3,1.5-2.3,2.5-2S799.08,440.36,798.7,441.75Zm5.76-3c-.39,1.42-1.52,2.34-2.52,2.07s-1.51-1.65-1.13-3.07,1.52-2.34,2.53-2.07S804.85,437.32,804.46,438.74Zm5.76-3.11c-.4,1.44-1.54,2.39-2.55,2.11s-1.52-1.67-1.12-3.11,1.53-2.39,2.55-2.11S810.61,434.19,810.22,435.63Z"/></g><g class="cls-15"><path class="cls-34" d="M1043.32,1122.29a8.7,8.7,0,0,1-12.91,7.61l-133.9-74a8.69,8.69,0,0,1-4.5-7.62v-40.79l151.31,83.63Z"/><path class="cls-35" d="M891.77,1000.36v4.71l151.31,83.63v-7a8.7,8.7,0,0,0-4.49-7.61L898.23,996.55A4.35,4.35,0,0,0,891.77,1000.36Zm143.74,76.37c1-.27,2.12.63,2.5,2s-.12,2.74-1.12,3-2.12-.64-2.5-2S1034.51,1077,1035.51,1076.73Zm-5.76-3.06c1-.27,2.14.66,2.53,2.07s-.11,2.79-1.12,3.07-2.14-.65-2.53-2.07S1028.75,1074,1029.75,1073.67Zm-5.75-3.15c1-.28,2.15.67,2.55,2.11s-.11,2.83-1.12,3.11-2.16-.67-2.55-2.11S1023,1070.8,1024,1070.52Z"/></g><path class="cls-36" d="M873,579V755.45a36,36,0,0,1-17.7,31L564.72,958A27,27,0,0,1,524,934.71V777"/><path class="cls-37" d="M524,771,873,575V560.39a9,9,0,0,0-13.41-7.84L533,736.29a18,18,0,0,0-9.17,15.82Zm38.4-37.89c1.06-3.34,3.83-5.43,6.17-4.68s3.37,4.06,2.3,7.39-3.83,5.43-6.17,4.68S561.33,736.44,562.4,733.11Zm-13.72,6.7c1.05-3.27,3.79-5.32,6.11-4.58s3.36,4,2.31,7.28-3.78,5.33-6.1,4.58S547.63,743.09,548.68,739.81Zm-13.75,7.61c1-3.22,3.74-5.23,6.05-4.49s3.35,4,2.32,7.17-3.74,5.22-6,4.48S533.9,750.64,534.93,747.42Z"/><ellipse class="cls-18" cx="814" cy="462.89" rx="6.57" ry="9.47" transform="translate(-25.62 48.29) rotate(-3.35)"/><g class="cls-38"><line class="cls-39" x1="546" y1="786" x2="545.99" y2="788.5"/><line class="cls-40" x1="545.95" y1="807.94" x2="545.72" y2="919.73"/><line class="cls-39" x1="545.7" y1="929.45" x2="545.7" y2="931.95"/></g><line class="cls-41" x1="565.5" y1="780.5" x2="637" y2="740.29"/><line class="cls-42" x1="568.15" y1="808.9" x2="673.41" y2="748.96"/><line class="cls-41" x1="693" y1="739" x2="744" y2="709.97"/><line class="cls-43" x1="758" y1="704" x2="773.81" y2="695"/><line class="cls-44" x1="605.5" y1="822.5" x2="637" y2="805"/><line class="cls-45" x1="651.5" y1="796.5" x2="733.4" y2="751"/><line class="cls-41" x1="748.5" y1="742.5" x2="819.6" y2="703"/><line class="cls-41" x1="612.5" y1="855.5" x2="692.6" y2="811"/><line class="cls-42" x1="705.5" y1="800.5" x2="794" y2="749"/><line class="cls-43" x1="575.84" y1="910.82" x2="712.66" y2="828.68"/><line class="cls-41" x1="731.84" y1="817.82" x2="784.36" y2="786.29"/><path class="cls-29" d="M1030,1096.57c-12-17.57-19-8.57-27-5.57s-17-1-20-11c-4.78-15.94-15.17-6.13-15.17-6.13l-.23,12.48,61.2,35.65Z"/><line class="cls-46" x1="944" y1="1069" x2="912.66" y2="1052"/><line class="cls-47" x1="925" y1="1048.15" x2="901" y2="1035.14"/><line class="cls-47" x1="958" y1="1066.32" x2="930" y2="1051.14"/><line class="cls-47" x1="913.66" y1="1033" x2="901" y2="1026.14"/><line class="cls-48" x1="950.09" y1="1052" x2="919" y2="1035.14"/><g class="cls-49"><line class="cls-50" x1="834" y1="438" x2="834" y2="438.5"/><line class="cls-51" x1="834" y1="450.4" x2="834" y2="457.55"/><line class="cls-50" x1="834" y1="463.5" x2="834" y2="464"/></g><line class="cls-52" x1="845" y1="435" x2="922" y2="393"/><line class="cls-52" x1="845" y1="448" x2="873" y2="432.73"/><line class="cls-47" x1="880" y1="429" x2="908" y2="413.73"/><line class="cls-53" x1="845" y1="459" x2="859.67" y2="451"/></g><g id="Light"><polygon class="cls-54" points="390.33 447 546.33 535 681.33 459 684.33 33 544.33 92 391.33 33 390.33 447"/></g><g id="People"><path class="cls-55" d="M813.77,1060.13c.87,12.18,0,105.33,0,105.33-1,1.2-3.46,2.12-6.69,2.8,0,0-10.2-4.11-22.73,1.44-5.17-.21-9.21-.78-10.2-1.63-2-1.71-1.38-32.52-.71-53.6,9.22-23.54,18.41-46.51,20.06-49,3.48-5.22,6-38,6-38l0-.07a39.73,39.73,0,0,0,9.94-4.72l.17,0C810.28,1028.11,813,1049.54,813.77,1060.13Z"/><path class="cls-56" d="M807.08,1168.26s-1.59,10.26-3.33,22.88-25.68,4.79-44.39,0-3.05-12.18,6.52-11.31,18.27-10,18.27-10l.2-.09C791.49,1170,800.77,1169.59,807.08,1168.26Z"/><path class="cls-57" d="M752.85,1021.83l-.89-.44s.43-29.6,0-33.52-14.8-20-19.59-24.81-36.13-64.42-36.13-64.42a9.52,9.52,0,0,0,2.93-.43,21.05,21.05,0,0,0,7.84-4.39,31.85,31.85,0,0,0,2.72-2.58s32.65,54.41,54,68.34c0,0,2.1-4.88,5.19-6.79l.47,1.13c8.27,7.83,12.18-3,12.18-3l-3.48-7.4c6.27-6.37,7.12-15.75,1.86-21a12.31,12.31,0,0,0-9.56-3.43,17,17,0,0,0-7.13,2.08c-2.22-12.29-4.42-24.24-5.19-27.7-1.74-7.83-11.32-30.47-11.32-30.47a8.78,8.78,0,0,0,3.22-.2,48.19,48.19,0,0,0,9.54-3.54s.12.2.17-.08c2.59-1.23,4.48-2.27,4.48-2.27s12.19,31.78,16.11,38.74,14.36,55.28,14.8,61.37,14.36,65.73,14.36,65.73a39.73,39.73,0,0,1-9.94,4.72C779.45,1033.74,757.51,1024.07,752.85,1021.83Z"/><path class="cls-58" d="M773.44,1114.47c-10.28,26.24-20.61,53.17-20.61,53.17-2.14,1.14-6.05.6-10.44-.77-.1-.22-3.44-7.45-16.42-7.48h0a22.49,22.49,0,0,1-5.35-3.94c-2.62-3.48,2.17-9.14,4.78-14.36s21.33-68.34,25.25-81c3.62-11.65,2.41-34.8,2.2-38.3,4.66,2.24,26.6,11.91,46.62,5.58l0,.07s-2.52,32.78-6,38C791.85,1068,782.66,1090.93,773.44,1114.47Z"/><path class="cls-55" d="M784.35,1169.7c12.53-5.55,22.73-1.44,22.73-1.44C800.77,1169.59,791.49,1170,784.35,1169.7Z"/><path class="cls-59" d="M778.07,943.47l3.48,7.4s-3.91,10.88-12.18,3l-.47-1.13h0c0-.13-.28-1.6-.7-4a18.37,18.37,0,0,0,9.77-5.2l.11-.11Z"/><path d="M779.93,922.46c5.26,5.26,4.41,14.64-1.86,21h0c-6-.6-8.93,2.14-10.14,3.88-.29-1.66-.64-3.65-1-5.86a5.19,5.19,0,0,0,4.65-1.94c1.74-2.61-5.66-4.35-5.66-4.35s3.92,0,2.62-4.79S770.37,919,770.37,919h0A12.31,12.31,0,0,1,779.93,922.46Z"/><path d="M778.07,943.47l-.11.11a18.37,18.37,0,0,1-9.77,5.2l-.26-1.43C769.14,945.61,772,942.87,778.07,943.47Z"/><path class="cls-59" d="M765.88,935.2s7.4,1.74,5.66,4.35a5.19,5.19,0,0,1-4.65,1.94c-.34-1.94-.72-4-1.11-6.27Z"/><path class="cls-59" d="M770.37,919h0s-3.18,6.59-1.87,11.38-2.62,4.79-2.62,4.79l-.1,0c-.8-4.42-1.67-9.3-2.54-14.11A17,17,0,0,1,770.37,919Z"/><path class="cls-59" d="M767.19,948.69l.09.22a14.17,14.17,0,0,1-4.7-.24h0c3-1.63,1.8-8,1.59-9,.26,1.09,1.39,1.69,2.72,1.8.4,2.21.75,4.2,1,5.86A6.17,6.17,0,0,0,767.19,948.69Z"/><path class="cls-59" d="M764.15,939.57a.74.74,0,0,0,0,.12c.21,1,1.39,7.35-1.59,9h0a11.81,11.81,0,0,1-5.74-3.12c-5.28-5.29-4.4-14.75,2-21.12a19.22,19.22,0,0,1,4.43-3.32c.87,4.81,1.74,9.69,2.54,14.11.39,2.23.77,4.33,1.11,6.27-1.33-.11-2.46-.71-2.72-1.8A.5.5,0,0,1,764.15,939.57Z"/><path class="cls-59" d="M759.49,859.2a48.19,48.19,0,0,1-9.54,3.54s-.61-2.41-10.18-5-3.48-6.09,0-5.66,6.09.87,6.09.87-6.09-15.67.87-15.23,10.88,2.17,12.19,12.62c.81,6.44.84,8.31.74,8.8Z"/><path class="cls-56" d="M742.39,1166.87h0s0,18.61-4.81,23.39-49.19-17-51.36-20.45,13.06-3,23.5-3.92,16.24-6.51,16.24-6.51h0A82.51,82.51,0,0,0,742.39,1166.87Z"/><path class="cls-58" d="M726,1159.39c13,0,16.32,7.26,16.42,7.48A82.51,82.51,0,0,1,726,1159.39Z"/><path class="cls-59" d="M699.72,878.61c4.79-2.61,7.84,3.49,6.53,8.27s.76,6.94.76,6.94a21.05,21.05,0,0,1-7.84,4.39h0c-17.08-7-20.78-19.59-12.51-22.63s11.76,10,11.32,7.83S699.72,878.61,699.72,878.61Z"/><path d="M602.65,530.91c-.44-.17-4.3-1.79-2.86-5.49,1.52-3.92,6.33-9.48,12.21-7.2,0,0,2.6-4.3,8.8-.44l1.32,1.71s13.1,2.16,3.92,9.75l-1.71,1.32s6.7,8,5.56,13-4,15.43-6.72,16.63A6.68,6.68,0,0,0,621.1,562a6.86,6.86,0,0,1-5.08-6.24c-.37-5.19-12.64-9.82-14.86-8.56a13.83,13.83,0,0,1-3.79,1.58s1.84-6.45-1.77-6.39-5.25,5-3.93,6.7c0,0-5.5-5.31-10.5-2.35,0,0,1.41-15.24,15.45-16.56A23.1,23.1,0,0,1,602.65,530.91Z"/><path class="cls-60" d="M583.83,559.4a33.85,33.85,0,0,1,2-8.12s-5.93,6.57-4.92,8.69c-2.11.53-4.83,1.38-5.86,2.44a5.08,5.08,0,0,0-1,2.82c-13.93,3.76-1.48-14.92-1.48-14.92,1.65.8,5,1.42,8.53-3.59,5-3,10.5,2.35,10.5,2.35-1.32-1.71.32-6.64,3.93-6.7s1.77,6.39,1.77,6.39a13.83,13.83,0,0,0,3.79-1.58c2.22-1.26,14.49,3.37,14.86,8.56A6.86,6.86,0,0,0,621.1,562c-2.07,2.35-4.46,6-8.76,6.66-5.75.82-4.87,2-6.07,3.35s-3.55,3.66-5.7.31c-2-3.13-11.07,6.32-14.74-1.34s-2.14-11.58-2.14-11.58Z"/><path class="cls-60" d="M550.09,612.74a94.7,94.7,0,0,1-10.36-6.31c-3.47-2.49-6.46-5.2-7.75-7.81,0,0-2.28-2.34,2.79-14l16.44,1.83c-1.32,3.47-2.06,6.1-1.58,6.72,1.77,2.28,28.13,25.65,30.16,25.9,0,0,12.4-.49,14.54,2.86s-6,2.84-7,2.71,8.41,10.83,3.91,13.86-9.75,8-15.05-11.14l.07-.51c.13-1-19.23-10.64-19.23-10.64S554,614.83,550.09,612.74Z"/><path class="cls-61" d="M556.89,643.66c.37-1.89.68-3.26.68-3.26l13.26.74c-.13.59-.63,3.52,2,4.77,2.91,1.4,23.84,6.6,12.07,10.26,0,0-28.28,0-29-2.62-.37-1.42.12-5.07.67-8.17h0C556.68,644.78,556.79,644.2,556.89,643.66Z"/><path class="cls-62" d="M583.35,598.92,579.79,619c-2-.25-28.39-23.62-30.16-25.9-.48-.62.26-3.25,1.58-6.72,6.76,1.13,10.82,2.12,10.82,2.12S580,592.84,583.35,598.92Z"/><path class="cls-62" d="M576.17,627.32l-1.27,14.23-2.51-.32-1.54-.19a.65.65,0,0,0,0,.1l-13.26-.74L554,640l3-23.78s19.36,9.63,19.23,10.64Z"/><path class="cls-63" d="M585.87,551.28a33.85,33.85,0,0,0-2,8.12l-.14,0s-1.21.21-2.74.59C579.94,557.85,585.87,551.28,585.87,551.28Z"/><path class="cls-64" d="M573.62,570.52c-.45,4.12-5.07,15.23-5.07,15.23l-4.2-.86c2.79-4.36,7.26-11.26,8.45-12.49A3.76,3.76,0,0,0,573.62,570.52Z"/><path class="cls-64" d="M562.24,562.35c-.29.57-7.61,15.13-11,24.06l-16.44-1.83c.31-.71.62-1.42,1-2.15-4.88-.82-14.14-2.56-14.14-2.56-2-2.12-10.78-5.6-13.61-23.9,5.69-2.44,34.25-14.15,51.95-11.92,0,0,5.19-.37,11.63,5.58a4.76,4.76,0,0,0,1.09.68s-12.45,18.68,1.48,14.92c-.2,1.7-.19,3.74-.5,5.29a3.76,3.76,0,0,1-.82,1.88c-1.19,1.23-5.66,8.13-8.45,12.49l-8.43-1.72Z"/><path class="cls-60" d="M555.92,583.17l8.43,1.72C563,587,562,588.53,562,588.53s-4.06-1-10.82-2.12c3.42-8.93,10.74-23.49,11-24.06Z"/><path class="cls-60" d="M551.81,641.21c3.64,2.44,5,2.45,5.08,2.45-.1.54-.21,1.12-.31,1.72h0c-.35,0-13.57-.15-18.44-1.77s1.59-37.18,1.59-37.18a94.7,94.7,0,0,0,10.36,6.31c-.11.47-5.31,23-6.63,25.37A21.94,21.94,0,0,1,551.81,641.21Z"/><path class="cls-62" d="M535.72,582.43c-.33.73-.64,1.44-1,2.15-5.07,11.7-2.79,14-2.79,14s-8-2-9-2.15c0,0-.31-13.92-1.07-16.07a1.35,1.35,0,0,0-.35-.53S530.84,581.61,535.72,582.43Z"/><path class="cls-65" d="M523,596.47c-1-.13,5.21,40.23.15,43.71s-58.64.33-61.81,1-3.22,1.14-3.22,1.14l-.44-4.68,1-12.09.5-.06c3.67-.57-.45-.57-.45-.57l.39-3,45.1,5.16s-22.11-49-11.78-61.63c0,0,3.29-5.75,14.49-9l1-.44c2.83,18.3,11.64,21.78,13.61,23.9a1.35,1.35,0,0,1,.35.53C522.69,582.55,523,596.47,523,596.47Z"/><path class="cls-66" d="M458.76,624.88s4.12,0,.45.57l-.5.06Z"/><path class="cls-61" d="M458.71,625.51l-1,12.09s-1.9-1.27-3.74,1.07-9.31,20.93-14.56,13.59c0,0-.42-25.24,7-26.88C453.42,623.81,455.36,625.82,458.71,625.51Z"/></g></g></svg>