<svg xmlns="http://www.w3.org/2000/svg" xmlns:xlink="http://www.w3.org/1999/xlink" viewBox="0 0 1274 1706"><defs><style>.cls-1{isolation:isolate;}.cls-12,.cls-2,.cls-25{fill:#3888fc;}.cls-3{fill:#b3d9ff;}.cls-4{fill:#71b2ff;}.cls-5{fill:url(#linear-gradient);}.cls-6{fill:url(#linear-gradient-2);}.cls-14,.cls-29,.cls-7{opacity:0.35;}.cls-8{fill:#7bb5ef;}.cls-12,.cls-20,.cls-24,.cls-26,.cls-27,.cls-9{opacity:0.5;}.cls-10{fill:url(#linear-gradient-3);}.cls-11{fill:url(#linear-gradient-4);}.cls-12,.cls-13,.cls-14,.cls-15,.cls-16,.cls-20,.cls-21,.cls-24,.cls-25,.cls-26,.cls-28,.cls-29,.cls-30{mix-blend-mode:multiply;}.cls-13,.cls-14,.cls-15,.cls-16,.cls-20,.cls-21,.cls-24,.cls-26,.cls-27,.cls-28,.cls-29,.cls-30{fill:none;stroke:#3888fc;stroke-linecap:round;stroke-miterlimit:10;}.cls-13,.cls-29{stroke-width:8px;}.cls-13,.cls-16,.cls-25,.cls-28,.cls-30{opacity:0.25;}.cls-14,.cls-15,.cls-16{stroke-width:4px;}.cls-15{opacity:0.15;}.cls-17{opacity:0.75;}.cls-18{fill:url(#linear-gradient-5);}.cls-19{fill:url(#linear-gradient-6);}.cls-20,.cls-21,.cls-28{stroke-width:5px;}.cls-21{opacity:0.2;}.cls-22{fill:url(#linear-gradient-7);}.cls-23{fill:url(#linear-gradient-8);}.cls-24{stroke-width:6px;}.cls-26,.cls-27{stroke-dasharray:20 10;}.cls-30{stroke-width:3px;}.cls-31{fill:#5a5985;}.cls-32{fill:#f7c5b0;}.cls-33{fill:#453756;}.cls-34{fill:#e54b48;}.cls-35{fill:#db902e;}.cls-36{fill:#f88777;}.cls-37{fill:#efa389;}.cls-38{fill:#4f4f77;}.cls-39{fill:#8f80ba;}.cls-40{fill:#ea594e;}.cls-41{fill:#bc2f2f;}.cls-42{fill:#5a5886;}.cls-43{fill:#f56856;}.cls-44{fill:#ff8980;}.cls-45{fill:#605272;}.cls-46{fill:#4a0400;}.cls-47{fill:#f9b26b;}</style><linearGradient id="linear-gradient" x1="634.05" y1="705.21" x2="609.31" y2="864.05" gradientUnits="userSpaceOnUse"><stop offset="0" stop-color="#fff" stop-opacity="0"/><stop offset="0.06" stop-color="#6abeff" stop-opacity="0.02"/><stop offset="0.53" stop-color="#3166ff" stop-opacity="0.84"/><stop offset="0.78" stop-color="#0636a1" stop-opacity="0.99"/><stop offset="0.96" stop-color="#002f94"/></linearGradient><linearGradient id="linear-gradient-2" x1="624.77" y1="461.03" x2="624.77" y2="869.93" gradientUnits="userSpaceOnUse"><stop offset="0.14" stop-color="#fff" stop-opacity="0"/><stop offset="0.8" stop-color="#ffaaa4"/></linearGradient><linearGradient id="linear-gradient-3" x1="876.91" y1="1012.33" x2="1044.12" y2="1012.33" gradientTransform="translate(37.95 -16.94) rotate(-1.44)" gradientUnits="userSpaceOnUse"><stop offset="0" stop-color="aqua" stop-opacity="0.5"/><stop offset="0.15" stop-color="#04fffe" stop-opacity="0.51"/><stop offset="0.3" stop-color="#11fffb" stop-opacity="0.55"/><stop offset="0.46" stop-color="#26fff5" stop-opacity="0.61"/><stop offset="0.62" stop-color="#4fe" stop-opacity="0.7"/><stop offset="0.78" stop-color="#6affe4" stop-opacity="0.81"/><stop offset="0.94" stop-color="#98ffd8" stop-opacity="0.94"/><stop offset="1" stop-color="#abffd3"/></linearGradient><linearGradient id="linear-gradient-4" x1="877.18" y1="982.61" x2="1044.39" y2="982.61" xlink:href="#linear-gradient-3"/><linearGradient id="linear-gradient-5" x1="558.65" y1="1027.97" x2="780.43" y2="1027.97" gradientTransform="translate(52.74 -28.24) rotate(-2.16)" xlink:href="#linear-gradient-3"/><linearGradient id="linear-gradient-6" x1="559" y1="988.55" x2="780.79" y2="988.55" gradientTransform="translate(52.74 -28.24) rotate(-2.16)" xlink:href="#linear-gradient-3"/><linearGradient id="linear-gradient-7" x1="114.01" y1="1108.92" x2="390" y2="1108.92" gradientUnits="userSpaceOnUse"><stop offset="0" stop-color="#abffd3"/><stop offset="0.06" stop-color="#98ffd8" stop-opacity="0.94"/><stop offset="0.22" stop-color="#6affe4" stop-opacity="0.81"/><stop offset="0.38" stop-color="#4fe" stop-opacity="0.7"/><stop offset="0.54" stop-color="#26fff5" stop-opacity="0.61"/><stop offset="0.7" stop-color="#11fffb" stop-opacity="0.55"/><stop offset="0.85" stop-color="#04fffe" stop-opacity="0.51"/><stop offset="1" stop-color="aqua" stop-opacity="0.5"/></linearGradient><linearGradient id="linear-gradient-8" x1="114" y1="988.9" x2="389.93" y2="988.9" xlink:href="#linear-gradient-7"/></defs><title>MongoDB_Isometric_Zoom2</title><g class="cls-1"><g id="bottom_block" data-name="bottom block"><polygon class="cls-2" points="1070.26 783.55 1070.26 1058.01 561.66 1349.28 561.66 1080.42 1070.26 783.55"/><polygon class="cls-3" points="1070.26 783.55 561.66 1080.42 183.01 844.04 683.77 578.54 1070.26 783.55"/><polygon class="cls-4" points="561.66 1080.42 561.66 1349.28 183.01 1121.31 183.01 844.04 561.66 1080.42"/><polygon class="cls-5" points="633.36 869.81 784.6 784.67 607.59 696.17 460.84 771.22 633.36 869.81"/></g><g id="bottom_right_light" data-name="bottom right light"><polygon class="cls-6" points="458.97 771.34 633.73 869.93 784.97 784.79 790.57 461.03 633.73 527.13 462.33 461.03 458.97 771.34"/></g><g id="Extended_blocks" data-name="Extended blocks"><g class="cls-7"><polygon class="cls-2" points="1226.18 1063.47 1226.18 1090.41 1142.66 1129.71 1142.66 1129.61 1142.66 1103.88 1142.66 1103.78 1226.18 1063.47"/><polygon class="cls-3" points="1226.18 1063.47 1142.66 1103.78 1142.66 1103.88 1087.07 1076.63 1170.34 1036.73 1226.18 1063.47"/><polygon class="cls-8" points="1142.66 1103.88 1142.66 1129.61 1087.07 1102.66 1087.07 1076.63 1142.66 1103.88"/></g></g><g id="Code_panels" data-name="Code panels"><g class="cls-9"><path class="cls-10" d="M941.58,1031.57a9.61,9.61,0,0,0,14.47,8l145.87-85.49a9.61,9.61,0,0,0,4.75-8.54l-1.13-45.07L940.71,997.13Z"/><path class="cls-11" d="M1098.37,888.62l-152.9,89.61a9.61,9.61,0,0,0-4.75,8.54l.19,7.68,164.83-96.6-.13-5.21A4.81,4.81,0,0,0,1098.37,888.62ZM950.26,984.33c-.38,1.55-1.59,2.58-2.71,2.31s-1.7-1.76-1.32-3.31,1.59-2.58,2.71-2.31S950.64,982.78,950.26,984.33Zm6.28-3.49c-.39,1.58-1.62,2.63-2.74,2.36s-1.71-1.78-1.32-3.36,1.61-2.63,2.73-2.35S956.93,979.26,956.54,980.84Zm6.27-3.59c-.4,1.6-1.63,2.68-2.76,2.4s-1.72-1.81-1.32-3.41,1.63-2.68,2.76-2.4S963.21,975.64,962.81,977.25Z"/></g><ellipse class="cls-12" cx="959.35" cy="1009.72" rx="7.36" ry="10.61" transform="translate(-57.28 57.7) rotate(-3.35)"/><line class="cls-13" x1="975.45" y1="994.55" x2="1021.41" y2="966.44"/><line class="cls-14" x1="978.81" y1="1009.12" x2="1004.19" y2="993.59"/><line class="cls-15" x1="1011.3" y1="990.07" x2="1074.18" y2="951.61"/><line class="cls-16" x1="1080.32" y1="947.64" x2="1094.98" y2="938.67"/><g class="cls-17"><path class="cls-18" d="M652.71,1055.61a12.76,12.76,0,0,0,19.34,10.44l192-115.81a12.78,12.78,0,0,0,6.16-11.4L868,879.09,651,1010Z"/><path class="cls-19" d="M858.28,863.41,657,984.81a12.76,12.76,0,0,0-6.15,11.41l.38,10.18,217-130.87-.26-6.9A6.38,6.38,0,0,0,858.28,863.41ZM663.44,992.81c-.48,2.07-2.07,3.46-3.55,3.11s-2.29-2.3-1.81-4.36,2.07-3.45,3.55-3.11S663.92,990.75,663.44,992.81Zm8.27-4.72c-.49,2.1-2.1,3.52-3.59,3.17s-2.3-2.33-1.81-4.43,2.1-3.52,3.59-3.17S672.2,986,671.71,988.09Zm8.26-4.87c-.5,2.13-2.12,3.58-3.62,3.23s-2.31-2.37-1.81-4.5,2.12-3.58,3.62-3.23S680.47,981.08,680,983.22Z"/></g><line class="cls-20" x1="669.28" y1="1019.36" x2="815.59" y2="931.7"/><line class="cls-21" x1="730.35" y1="1005.21" x2="845.1" y2="936.45"/><line class="cls-21" x1="827.03" y1="923.93" x2="844.07" y2="913.02"/><line class="cls-20" x1="670.22" y1="1044.26" x2="718.92" y2="1013.09"/><path class="cls-22" d="M131,1165.23l203.85,127.09c24,15,55.05-2.29,55.05-30.55V1092H390L114.13,920,114,1134.66A36,36,0,0,0,131,1165.23Z"/><path class="cls-23" d="M377.22,1048,127.83,892.54a9,9,0,0,0-13.77,7.59L114,914.65l275.87,172,.06-15.58A27,27,0,0,0,377.22,1048ZM129.15,915.25c-2.37.65-5-1.56-6-4.94s.25-6.63,2.62-7.28,5,1.56,6,4.94S131.52,914.6,129.15,915.25Zm13.41,7.18c-2.35.64-5-1.53-5.9-4.84s.26-6.53,2.62-7.18,5,1.53,5.91,4.84S144.92,921.78,142.56,922.43ZM156,930.5c-2.34.64-5-1.48-5.85-4.74s.28-6.43,2.62-7.07,5,1.49,5.85,4.75S158.32,929.86,156,930.5Z"/><ellipse class="cls-12" cx="148" cy="1046.89" rx="9.47" ry="6.57" transform="translate(-905.74 1133.55) rotate(-86.65)"/><ellipse class="cls-12" cx="145" cy="1104.89" rx="9.47" ry="6.57" transform="translate(-966.47 1185.17) rotate(-86.65)"/><polyline class="cls-14" points="348 1263 225.62 1191.25 226 1040"/><path class="cls-24" d="M227,1137s20-34,28,17,29,51,48,19,53-99,50-20"/><path class="cls-25" d="M353,1153c3-79-31-12-50,20s-40,32-48-19-28-17-28-17l-1,54,122,72Z"/><polyline class="cls-26" points="320.06 1246.6 323.29 1138.78 225.62 1081.5"/><polyline class="cls-27" points="225.72 1151.5 258.27 1169.67 256.17 1209.16"/><polygon class="cls-25" points="196 1042 129 998.67 129 958 196 1001.33 196 1042"/><polygon class="cls-25" points="209.02 1040 170.51 1015.34 170.51 995 209.02 1019.66 209.02 1040"/><polygon class="cls-25" points="295.02 1120 264.21 1100.27 264.21 1084 295.02 1103.73 295.02 1120"/><line class="cls-28" x1="129.5" y1="1024.5" x2="129.5" y2="1133"/><line class="cls-29" x1="162.89" y1="1047.02" x2="202.5" y2="1070.5"/><line class="cls-30" x1="159.89" y1="1059.02" x2="185" y2="1074"/><line class="cls-30" x1="159.89" y1="1066.02" x2="202" y2="1090"/><line class="cls-30" x1="159.89" y1="1074.02" x2="172" y2="1081"/><line class="cls-30" x1="175.89" y1="1083.02" x2="188" y2="1090"/><line class="cls-30" x1="153.89" y1="1119.02" x2="166" y2="1126"/><line class="cls-30" x1="170.89" y1="1129.02" x2="196" y2="1143"/><line class="cls-30" x1="151.89" y1="1126.02" x2="177" y2="1140"/><line class="cls-30" x1="149.89" y1="1133.02" x2="168" y2="1143"/><line class="cls-30" x1="171.89" y1="1146.02" x2="190" y2="1156"/><line class="cls-29" x1="158.89" y1="1107.02" x2="198.5" y2="1130.5"/></g><g id="People"><path class="cls-31" d="M284.72,674.43c-.46.74-15.46,24.43-15.63,26.56-.12,1.45.93,20.17,1.62,32.24-.87,2.76-2.13,6.78-3.66,11.66l-15,1.47c-.33-.08-.66-.18-1-.29,0,0-5.48-34.37-1.1-45.33,3.85-9.66,14.85-32.28,22.72-40.63a14.41,14.41,0,0,1,3-2.53c7.77-4.59,15.87-7.85,18.06-8.1-1.94,2.45,10.28,7.36,13.83,1.12A39.58,39.58,0,0,1,318.19,655a26.39,26.39,0,0,1,4.4,3.31c6.06,5.71,26.79,2.18,26.79,2.18s4-38.4,5-39.63a1.69,1.69,0,0,1,1.08-.37c6.85,3.57,11.78,1.19,11.78,1.19l2.27.41s1.43,46.67-4.32,53.16-7.51,6.79-21,7S327.71,681,327.71,681l-8.57,51.95s-.47.14-1.32.34a74.51,74.51,0,0,1-10.59,1.64L272,729.07s0,.1-.1.28l-.77-.35s-.58-19.62,3.33-30.18C278.31,688.46,284.49,675,284.72,674.43Z"/><path class="cls-32" d="M366,595.74c4.73,6,2.35,21.49,1.24,26-3.77-.66-9.38-1.47-11.78-1.19,0,0-8.6-14.16-5.47-15.21s6.53,5.32,7.26,7.12S361.23,589.7,366,595.74Z"/><path class="cls-31" d="M367.2,621.72s-4.93,2.38-11.78-1.19C357.82,620.25,363.43,621.06,367.2,621.72Z"/><path class="cls-33" d="M330.53,873.39c5.2,2.5,12.14,7.75,6.25,9.47s-40.33-12.18-40-18.73a34.78,34.78,0,0,1,1.72-9.08A26.89,26.89,0,0,0,314.58,854C318.94,859.73,326.38,871.39,330.53,873.39Z"/><path class="cls-34" d="M315,810.44a147.7,147.7,0,0,0,5.88,40.07,27.88,27.88,0,0,1-6.31,3.46,18,18,0,0,0-2.61-3c-3-2.3-12.61,1.87-12.61,1.87a23.16,23.16,0,0,0-.84,2.18c-2.35-.57-3.7-1.3-3.55-1.43.47-.39-7-77.48-7-77.48.94-3.77,1.7-6.51,2.18-7.75,3.29-8.43,17.08-33.51,17.08-33.51a74.51,74.51,0,0,0,10.59-1.64C319.14,738.58,314.71,787.36,315,810.44Z"/><path class="cls-34" d="M312,851a18,18,0,0,1,2.61,3,26.89,26.89,0,0,1-16.06,1.08,23.16,23.16,0,0,1,.84-2.18S308.93,848.7,312,851Z"/><path class="cls-35" d="M312.44,644c3.21,3.3,7.63,5.59,5.75,11a39.58,39.58,0,0,0-10.64-4.44,25.22,25.22,0,0,1-.07-5.43,31,31,0,0,1,.57-3.89,15.64,15.64,0,0,0,4.25-4.08C311.35,638.93,310.32,641.86,312.44,644Z"/><path class="cls-31" d="M272,729.07l35.2,5.81c-9.13.77-22.33.35-35.3-5.53C272,729.17,272,729.07,272,729.07Z"/><path class="cls-32" d="M295,640.55l-.15.05h0c-3.71-3-6.1-8.22-6.12-14.18.74-3.33,3.55-7.76,4.45-9.1a25.61,25.61,0,0,1,.73,5.84c-.21,2.58,8.75-7,22.05-.9a23.41,23.41,0,0,1,.07,4.44,21.33,21.33,0,0,1-2.77,9h0a10.29,10.29,0,0,0-.93,1.44h0a15.64,15.64,0,0,1-4.25,4.08h0A19.25,19.25,0,0,0,295,640.55Z"/><path class="cls-35" d="M306.25,608.58c5.13,1.64,8.91,7,9.7,13.69-13.3-6.11-22.26,3.48-22.05.9a25.61,25.61,0,0,0-.73-5.84c-.38-1.78-.75-3.19-.75-3.19h0c2.83-4,7-6.4,11.41-6a10.65,10.65,0,0,1,2.39.47Z"/><path class="cls-36" d="M307.23,734.88S293.44,760,290.15,768.39c-.48,1.24-1.24,4-2.18,7.75-5.45,22-17.05,79-17.05,79-2.86,1-6.24.74-9.69-.17-1.92-3.21-3.53-5.82-4.48-6.67-2.85-2.54-11.86-4.85-11.86-4.85s-.4,1.17-1,3C241.81,845,240.5,844,240.5,844c-1-6.28,10.27-45.62,19.63-76.54a13.88,13.88,0,0,0,4.45-.24s2.94-4.12,2.06-14.63c0,0,2.13,5.83,3.24,2.88s-1.09-10.72-1.09-10.72a19.41,19.41,0,0,0,2.51-1.35s-.26-4.29-.59-10.14c.63-2,1.05-3.33,1.22-3.88C284.9,735.23,298.1,735.65,307.23,734.88Z"/><path class="cls-32" d="M308.05,641.27h0a11.46,11.46,0,0,1-7.07,1.83,11.2,11.2,0,0,1-5.54-2.05l-.45-.51A19.25,19.25,0,0,1,308.05,641.27Z"/><path class="cls-37" d="M308.05,641.28a31,31,0,0,0-.57,3.89c-3.4,4.71-10.08-2-12-4.11a11.2,11.2,0,0,0,5.54,2.05A11.46,11.46,0,0,0,308.05,641.28Z"/><path class="cls-32" d="M307.48,645.17a25.22,25.22,0,0,0,.07,5.43c-3.55,6.24-15.77,1.33-13.83-1.12s1.15-8.67,1.12-8.87c.19.16.4.31.6.45C297.4,643.2,304.08,649.88,307.48,645.17Z"/><path class="cls-35" d="M288.72,626.43c0,6,2.41,11.22,6.12,14.18,0,.2.79,6.46-1.12,8.87-2.19.25-10.29,3.51-18.06,8.1a14.41,14.41,0,0,0-3,2.53s-11.21.67-7.62-6,11.71-10.36,12.07-14.68-3.84-11.63-.9-15.74a43.29,43.29,0,0,1,12.22-11.19c4.09-2.26,5.83-8.86,17.76-3.93a10.65,10.65,0,0,0-2.39-.47c-4.43-.36-8.58,2-11.41,6a20.83,20.83,0,0,0-3.63,10.36C288.74,625.15,288.71,625.79,288.72,626.43Z"/><path class="cls-33" d="M273.41,872.15c5,2.92,11.46,8.72,5.45,10s-39.19-15.44-38.31-22a97.49,97.49,0,0,1,3.38-13.71c4,2.68,10.76,6.81,17.3,8.54C265.07,861.39,270.1,870.2,273.41,872.15Z"/><path class="cls-32" d="M295,640.55l.45.51c-.2-.14-.41-.29-.6-.45h0Z"/><path class="cls-35" d="M292.42,614.14s.37,1.41.75,3.19c-.9,1.34-3.71,5.77-4.45,9.1,0-.64,0-1.28.07-1.93a20.83,20.83,0,0,1,3.63-10.36Z"/><path class="cls-38" d="M284.72,674.43c-.23.53-6.41,14-10.23,24.39-3.91,10.56-3.33,30.18-3.33,30.18l.77.35c-.17.55-.59,1.89-1.22,3.88C270,721.16,269,702.44,269.09,701,269.26,698.86,284.26,675.17,284.72,674.43Z"/><path class="cls-32" d="M268.79,744.72s2.2,7.76,1.09,10.72-3.24-2.88-3.24-2.88c.88,10.51-2.06,14.63-2.06,14.63a13.88,13.88,0,0,1-4.45.24c2.47-8.14,4.79-15.69,6.73-21.91C267.58,745.25,268.23,745,268.79,744.72Z"/><path class="cls-31" d="M270.71,733.23c.33,5.85.59,10.14.59,10.14a19.41,19.41,0,0,1-2.51,1.35l-1.74.17C268.58,740,269.84,736,270.71,733.23Z"/><path class="cls-31" d="M267.05,744.89l1.74-.17c-.56.26-1.21.53-1.93.8C266.93,745.31,267,745.1,267.05,744.89Z"/><path class="cls-31" d="M252.06,746.36l15-1.47c-.06.21-.12.42-.19.63A24.44,24.44,0,0,1,252.06,746.36Z"/><path class="cls-36" d="M256.75,848.31c.95.85,2.56,3.46,4.48,6.67-6.54-1.73-13.34-5.86-17.3-8.54.56-1.81,1-3,1-3S253.9,845.77,256.75,848.31Z"/><path class="cls-32" d="M266.86,745.52c-1.94,6.22-4.26,13.77-6.73,21.91-11.55-1.44-8.08-21.07-8.08-21.07h0A24.44,24.44,0,0,0,266.86,745.52Z"/><path class="cls-34" d="M852.67,1123c1.77,3.53,3.54,42.88,1.77,45.54-.84,1.26-5.47,8.29-10.37,15.38-.77-16.24-4-67.13-15-72.15C833,1113.23,851.1,1119.89,852.67,1123Z"/><path d="M846,1078.82c2.21,1.33,4.42-2.21,1.32,4.87s-17,15.09-19.08,14.39c0-.39,0-.76.07-1.13v0a25,25,0,0,0,6-7.73c4.86-9.58,3.15-20.22-3.82-23.75-6.39-3.24-15,.61-20.1,8.65.19-.53,6.12-17.41,14-18.71,0,0,0,4,1.77,3.54s4-3.54,6.63-1.77c0,0-1.76,3.53,0,4.42s6.19-4,7.52-3.1-1.33,4.43,0,5.75,5.31,1.33,8,2.65.44,2.66-.89,5.75S843.83,1077.5,846,1078.82Z"/><path class="cls-39" d="M844.27,1188.47l3.09,50.85c-8.4,23.87-5.74,58.8-5.74,58.8a69.74,69.74,0,0,1-7.66,1.24c-.62-1.64-1.07-2.68-1.07-2.68s-5.55-5.22-16.92-.36a14.1,14.1,0,0,1-1,1.8,29.9,29.9,0,0,1-7.87-3.09c-5.42-7.75,2.38-61.26,4.4-74.45h0c.28-1.86.45-2.92.45-2.92l-11.6-29.25a157.52,157.52,0,0,0,19.23,2c3.56,7.35,9.52,10,11.83,9.59,1-.18,4.64-4.79,8.69-10.43,1.38-.18,2.75-.39,4.13-.63,0,0,0-.15,0-.44Z"/><path class="cls-40" d="M844.25,1188.47c0,.29,0,.44,0,.44-1.38.24-2.75.45-4.13.63,1.29-1.79,2.62-3.69,3.93-5.58C844.17,1186.18,844.23,1187.75,844.25,1188.47Z"/><path class="cls-34" d="M823.31,1179.75c3.65-4.87,8.32-10.92,10.79-13.39,4.42-4.42,3.1-4.86,3.54-7.07s-4.55-25.09-4.85-26.46l0-.07-4.42-21.22.07,0,.66.24h0c10.94,5,14.2,55.91,15,72.15-1.31,1.89-2.64,3.79-3.93,5.58a121.93,121.93,0,0,1-20.52.84,25.42,25.42,0,0,1-1.44-3.68S820.43,1183.6,823.31,1179.75Z"/><path class="cls-41" d="M832.79,1132.83c.3,1.37,5.28,24.32,4.85,26.46s.88,2.65-3.54,7.07c-2.47,2.47-7.14,8.52-10.79,13.39C825.81,1173.83,839.13,1169,832.79,1132.83Z"/><path class="cls-33" d="M834,1299.36c1.84,4.82,5.22,14.85,3.46,19.25-2.35,5.9-48.66,3.6-51.82,1.41s10.12-7.46,18.79-12.08a27.52,27.52,0,0,0,10.61-9.82A52.76,52.76,0,0,0,834,1299.36Z"/><path class="cls-32" d="M830.52,1065.45c7,3.53,8.68,14.17,3.82,23.75a25,25,0,0,1-6,7.73c.13-1.62-1.16-2.13-3.08-2-5.22-6.53-14.85-20.79-14.85-20.79h0C815.55,1066.06,824.13,1062.21,830.52,1065.45Z"/><path class="cls-34" d="M832.79,1132.83c6.34,36.21-7,41-9.48,46.92-2.88,3.85-5.13,7-5.13,7a25.42,25.42,0,0,0,1.44,3.68,157.52,157.52,0,0,1-19.23-2c-4.62-.76-8.19-1.56-10.26-2.06-1.3-.32-2-.52-2-.52s-.89,0,0-2.65,1.33-40.68,1.33-40.68c-8.85-8-18.13-36.7-18.57-42.89s-6.19-45.09-6.19-45.09a7.17,7.17,0,0,0,.85.34c.38.86.72,1.59,1,2.13,0,0,5.18,1.15,11-3.57,2.33-.8,4-1.56,4-1.56-.89,11.5,5.3,39.35,8.4,46S803.15,1116,803.15,1116l8.4-7.07s4.42,8.4,16.8,2.65l4.42,21.22Z"/><path class="cls-39" d="M832.89,1296.68s.45,1,1.07,2.68a52.76,52.76,0,0,1-19-1.24,14.1,14.1,0,0,0,1-1.8C827.34,1291.46,832.89,1296.68,832.89,1296.68Z"/><path class="cls-34" d="M840.14,1189.54c-4,5.64-7.64,10.25-8.69,10.43-2.31.38-8.27-2.24-11.83-9.59A121.93,121.93,0,0,0,840.14,1189.54Z"/><path class="cls-32" d="M825.27,1094.9c1.92-.1,3.21.41,3.08,2-.25.22-.51.43-.77.63A27.52,27.52,0,0,1,825.27,1094.9Z"/><path class="cls-32" d="M828.35,1096.93v0s-.23.28-.64.73l-.13-.12C827.84,1097.36,828.1,1097.15,828.35,1096.93Z"/><path class="cls-32" d="M828.35,1097c0,.37-.05.74-.07,1.13a1.74,1.74,0,0,1-.57-.4C828.12,1097.23,828.35,1097,828.35,1097Z"/><path class="cls-32" d="M828.28,1098.08c-.31,5.69.07,13.46.07,13.46-13.7-3.54-16.8-2.65-16.8-2.65a13.57,13.57,0,0,0,.8-4.67c5.53,3.52,13.12-4.08,15.36-6.54A1.74,1.74,0,0,0,828.28,1098.08Z"/><path class="cls-37" d="M827.58,1097.56l.13.12c-2.24,2.46-9.83,10.06-15.36,6.54a15.43,15.43,0,0,0-.75-4.86,11,11,0,0,0,1.32.79C817.38,1102.41,822.91,1101.23,827.58,1097.56Z"/><path class="cls-32" d="M825.27,1094.9a27.52,27.52,0,0,0,2.31,2.66c-4.67,3.67-10.2,4.85-14.66,2.59a11,11,0,0,1-1.32-.79h0S820.42,1095.17,825.27,1094.9Z"/><path class="cls-32" d="M828.35,1111.54c-12.38,5.75-16.8-2.65-16.8-2.65S814.65,1108,828.35,1111.54Z"/><path class="cls-32" d="M810.42,1074.11s9.63,14.26,14.85,20.79c-4.85.27-13.67,4.45-13.67,4.45-5.85-4.14-7-14-2.5-22.95A22.35,22.35,0,0,1,810.42,1074.11Z"/><path class="cls-42" d="M800.39,1188.4l11.6,29.25s-.17,1.06-.45,2.92h0l-28.27,87.71a26.94,26.94,0,0,1-6.25-1.22c.53-4.8.54-9,.54-9s-3-7-15.41-7a19.09,19.09,0,0,1-3.52,2.51c-2.52-3.21-3.82-5.76-3.66-6.07.44-.89,35.17-101.17,35.17-101.17C792.2,1186.84,795.77,1187.64,800.39,1188.4Z"/><path class="cls-32" d="M779.82,1036.67c3.35.3-1.86,16.37-1.86,16.37l-.45.37c-3.52,1.21-8.61,2.51-12,1.44-2.55-5.77-6.7-17.76-3.85-23.93,3.28-7.11,12.3,16.46,12.6,14.51S776.46,1036.36,779.82,1036.67Z"/><path class="cls-42" d="M777.55,1298.09s0,4.18-.54,9c-8.33-2.63-14.69-8.78-18.39-13.49a19.09,19.09,0,0,0,3.52-2.51C774.5,1291.09,777.55,1298.09,777.55,1298.09Z"/><path class="cls-33" d="M777,1307.07c-.55,5-1.68,10.66-4,13-4.49,4.49-46.12-15.92-48.16-19.19s12.24-2.85,22-3.67a28.06,28.06,0,0,0,11.7-3.59C762.32,1298.29,768.68,1304.44,777,1307.07Z"/><path class="cls-43" d="M765.54,1054.85c3.36,1.07,8.45-.23,12-1.44-5.79,4.72-11,3.57-11,3.57C766.26,1056.44,765.92,1055.71,765.54,1054.85Z"/><path class="cls-32" d="M640.32,1249c-.8,4.4.4,10.41,3.61,13.62s7.21-16.43,7.21-16.43,3.2,7.21,6.41,8.41-1.2-20-1.2-20-5.37,1.88-10.1-1.26a8.68,8.68,0,0,1-.72,2.46A47.66,47.66,0,0,0,640.32,1249Z"/><path class="cls-44" d="M650.74,1205.31c-1.33,6-3.2,21.76-4.49,28,4.73,3.14,10.1,1.26,10.1,1.26s8.21-31,10.41-34.45,10.82-32.45,10.82-32.45v27.43c12.42-3,37.91,0,37.91,0,1.75-8.26-2.65-28.24-2.65-28.24l17.63,28.05c12.38,5.69,30.08-26.92,35.56-37.82-.22-.07-7.37-2.32-11.22-6.26-7.26,8.48-19.54,28.86-19.54,28.86s-14.42-35.26-16.82-38.87a5.93,5.93,0,0,0-1.33-1.32c-4.11-3.11-14.3-5.89-14.3-5.89a10.29,10.29,0,0,1-12,0c-1.51-.75-11.54,2.75-16,4.84l-.78.37c-4,2-8.81,9.21-12,16.43S652.34,1198.09,650.74,1205.31Z"/><path class="cls-45" d="M677.58,1195.08S658,1325.5,660.35,1332.31c1.08,3.07,5.5,5.08,10.86,6h0a12.46,12.46,0,0,1,11.82.17h0a26.48,26.48,0,0,0,7.77-2.12s.4-105.37,6-120.2c0,0,16.43,43.27,16,60.1s-13.22,57.29-13.22,57.29a34,34,0,0,0,3.85,3.18,1.4,1.4,0,0,0-.34-1.13c5.92-1.55,18.59,6.56,18.59,6.56a4.65,4.65,0,0,0-.19,1.87,29.18,29.18,0,0,0,6.53-.06s10.42-47.68,12.42-53.69-19.93-91.76-25-95.16a5.28,5.28,0,0,1-1.45,3c-4.81,4-31.65,5.21-36.46,0Z"/><path class="cls-33" d="M670,1357.15c-2.41,4.41,21.63,8,22,2.8s-11.53-11-9-21.51a41.74,41.74,0,0,1-11.82-.17C671.24,1338.59,672.34,1352.79,670,1357.15Z"/><path class="cls-45" d="M671.21,1338.27h0a41.74,41.74,0,0,0,11.82.17h0A12.46,12.46,0,0,0,671.21,1338.27Z"/><path class="cls-46" d="M671.57,1114.76s-2.06,14.08,3.18,23.67c4.51-2.09,14.54-5.59,16-4.84v-9.81c-4.77-3.27-8.11-9.87-8.39-17.58,0-.35,0-.7,0-1,0-11.51,6.81-20.84,15.22-20.84a10.73,10.73,0,0,1,2.2.22v0S682.79,1076.3,671.57,1114.76Z"/><path class="cls-44" d="M677.58,1195.08v3c4.81,5.21,31.65,4,36.46,0a5.28,5.28,0,0,0,1.45-3S690,1192.06,677.58,1195.08Z"/><path class="cls-46" d="M706.9,1088.63a13.4,13.4,0,0,0-7.09-4.1,10.73,10.73,0,0,0-2.2-.22c-8.41,0-15.22,9.33-15.22,20.84,0,.35,0,.7,0,1,6-1.35,9.79-9.27,13.8-14.88,3.72-5.21,10.91-1.77,11.9-1.26C707.72,1089.56,707.32,1089.08,706.9,1088.63Z"/><path class="cls-32" d="M682.41,1106.2c.28,7.71,3.62,14.31,8.39,17.58h0l12.2.85c5.75-3,9.84-10.57,9.84-19.48a25,25,0,0,0-4.73-15.09c-1-.51-8.18-4-11.9,1.26C692.2,1096.93,688.44,1104.85,682.41,1106.2Z"/><path class="cls-32" d="M690.8,1123.78v9.81a10.29,10.29,0,0,0,12,0l.18-9a11.49,11.49,0,0,1-5.39,1.35A11.93,11.93,0,0,1,690.8,1123.78Z"/><path class="cls-47" d="M690.8,1123.78h0a11.93,11.93,0,0,0,6.81,2.2,11.49,11.49,0,0,0,5.39-1.35Z"/><path class="cls-33" d="M703.47,1336.69c-.09,3.09-4.67,10.46-3.85,12.85,1.57,4.62,31.65,20.43,33.25,14.42s-4.41-3.61-8.41-11.22c-2.25-4.27-2.84-7.09-2.93-8.75C713.76,1343.19,707.32,1339.47,703.47,1336.69Z"/><path class="cls-46" d="M708.11,1090.06a25,25,0,0,1,4.73,15.09c0,8.91-4.09,16.51-9.84,19.48l-.18,9s10.19,2.78,14.3,5.89c7.88-11.73,2.36-15.88.93-26.32-2.69-19.52-9.7-23.83-11.15-24.53C707.32,1089.08,707.72,1089.56,708.11,1090.06Z"/><path class="cls-45" d="M703.13,1335.56a1.4,1.4,0,0,1,.34,1.13c3.85,2.78,10.29,6.5,18.06,7.3a4.65,4.65,0,0,1,.19-1.87S709.05,1334,703.13,1335.56Z"/><path class="cls-32" d="M758.91,1147.21c-.92.24-2.37,1.58-4.1,3.6,3.85,3.94,11,6.19,11.22,6.26,1.09-2.14,1.69-3.45,1.69-3.45,15.63,10,20.44-3.6,20.44-3.6S763.72,1146,758.91,1147.21Z"/></g></g></svg>